<svg width="127" height="50" fill="none" xmlns="http://www.w3.org/2000/svg"><path fill-rule="evenodd" clip-rule="evenodd" d="M122.296 50H4.704C2.07 50 0 47.25 0 43.75V6.25C0 2.75 2.07 0 4.704 0h117.592C124.93 0 127 2.75 127 6.25v37.5c0 3.5-2.07 6.25-4.704 6.25z" fill="#004177"/><path opacity=".7" d="M59.004 21v-5.637h-4.418V21h.707v-4.996h3.016V21h.695zm3.543-4.133c-.59 0-1.063.301-1.313.758h-.015v-.688h-.645v5.418h.68V20.34h.016c.242.445.71.73 1.292.73 1.024 0 1.723-.828 1.723-2.101 0-1.274-.703-2.102-1.738-2.102zm-.133 3.606c-.695 0-1.164-.598-1.164-1.504 0-.903.469-1.504 1.164-1.504.723 0 1.176.586 1.176 1.504 0 .922-.453 1.504-1.176 1.504zM66.22 21l2.023-3.02h.031V21h.68v-4.063h-.672l-2.023 3.02h-.031v-3.02h-.68V21h.672zm5.281-1.793l.125-1.71h1.367V21h.68v-4.063h-2.66l-.156 2.254c-.051.747-.204 1.22-.606 1.22a.67.67 0 01-.207-.032v.613a.62.62 0 00.242.043c.856 0 1.133-.707 1.215-1.828zm5.32 1.863c1.121 0 1.88-.808 1.88-2.101 0-1.297-.759-2.102-1.88-2.102-1.125 0-1.882.805-1.882 2.102 0 1.293.757 2.101 1.882 2.101zm0-.597c-.718 0-1.191-.547-1.191-1.504s.473-1.504 1.191-1.504c.72 0 1.188.547 1.188 1.504s-.469 1.504-1.188 1.504zm3.418.527l1.64-1.953h.028V21h.672v-1.953h.031L84.25 21h.871l-1.836-2.14 1.774-1.922h-.828l-1.622 1.796h-.03v-1.797h-.673v1.797h-.027l-1.621-1.797h-.836l1.781 1.934L79.38 21h.86zm8.531-1.164c-.113.383-.492.645-1.007.645-.73 0-1.188-.512-1.188-1.29v-.039h2.914v-.258c0-1.23-.675-2.027-1.773-2.027-1.121 0-1.84.856-1.84 2.117 0 1.278.707 2.086 1.871 2.086.887 0 1.574-.523 1.692-1.234h-.669zm-1.066-2.379c.64 0 1.066.484 1.082 1.164h-2.207c.043-.676.488-1.164 1.125-1.164zM93.418 21h.68v-4.063h-.68v1.676H91.43v-1.675h-.68V21h.68v-1.828h1.988V21zm2.809 0l2.023-3.02h.031V21h.68v-4.063h-.672l-2.023 3.02h-.032v-3.02h-.68V21h.673zm6.886-1.164c-.113.383-.492.645-1.008.645-.73 0-1.187-.512-1.187-1.29v-.039h2.914v-.258c0-1.23-.676-2.027-1.773-2.027-1.121 0-1.84.856-1.84 2.117 0 1.278.707 2.086 1.871 2.086.887 0 1.574-.523 1.691-1.234h-.668zm-1.066-2.379c.641 0 1.066.484 1.082 1.164h-2.207c.043-.676.488-1.164 1.125-1.164zM56.227 31c.863 0 1.394-.45 1.394-1.168 0-.496-.336-.86-.848-.93v-.03c.375-.079.668-.466.668-.884 0-.652-.464-1.05-1.226-1.05h-1.738V31h1.75zm-1.07-3.512h.956c.426 0 .657.203.657.57 0 .395-.247.587-.758.587h-.856v-1.157zm0 1.703h.91c.593 0 .878.204.878.625 0 .41-.265.633-.758.633h-1.03v-1.258zm7.859-2.324c-.59 0-1.063.301-1.313.758h-.016v-.688h-.644v5.418h.68V30.34h.015c.242.445.711.73 1.293.73 1.024 0 1.723-.828 1.723-2.101 0-1.274-.703-2.102-1.738-2.102zm-.133 3.606c-.696 0-1.164-.598-1.164-1.504 0-.903.468-1.504 1.164-1.504.722 0 1.176.586 1.176 1.504 0 .922-.453 1.504-1.176 1.504zm4.324.597c.547 0 1.063-.304 1.305-.77h.015v.7h.645v-2.809c0-.808-.602-1.324-1.555-1.324-.96 0-1.562.54-1.61 1.242h.657c.086-.398.414-.644.938-.644.562 0 .89.297.89.793v.34l-1.164.066c-.937.055-1.472.492-1.472 1.188 0 .73.542 1.218 1.351 1.218zm.152-.578c-.488 0-.812-.254-.812-.64 0-.383.312-.625.86-.66l1.085-.067v.332c0 .586-.492 1.035-1.133 1.035zm4.606.578c.953 0 1.586-.508 1.586-1.258 0-.457-.278-.793-.813-.91v-.03a.907.907 0 00.7-.895c0-.66-.504-1.11-1.43-1.11-.86 0-1.445.426-1.531 1.098h.66c.054-.324.39-.531.87-.531.524 0 .766.25.766.597 0 .41-.273.614-.808.614h-.61v.554h.61c.613 0 .918.2.918.645 0 .386-.328.664-.918.664-.504 0-.84-.207-.918-.563h-.688c.07.688.715 1.125 1.606 1.125zm4.84-4.203c-.59 0-1.063.301-1.313.758h-.015v-.688h-.645v5.418h.68V30.34h.015c.242.445.711.73 1.293.73 1.024 0 1.723-.828 1.723-2.101 0-1.274-.703-2.102-1.738-2.102zm-.133 3.606c-.695 0-1.164-.598-1.164-1.504 0-.903.469-1.504 1.164-1.504.722 0 1.176.586 1.176 1.504 0 .922-.454 1.504-1.176 1.504zm4.324.597c.547 0 1.063-.304 1.305-.77h.015v.7h.645v-2.809c0-.808-.602-1.324-1.555-1.324-.96 0-1.562.54-1.61 1.242h.657c.086-.398.414-.644.938-.644.562 0 .89.297.89.793v.34l-1.164.066c-.937.055-1.473.492-1.473 1.188 0 .73.543 1.218 1.352 1.218zm.152-.578c-.488 0-.812-.254-.812-.64 0-.383.312-.625.86-.66l1.085-.067v.332c0 .586-.492 1.035-1.133 1.035zm4.993.578c1.175 0 1.898-.785 1.898-2.062 0-1.211-.7-1.985-1.797-1.985-.625 0-1.133.25-1.398.73h-.031c.164-1.214.5-1.71 1.628-1.753l.301-.012c.469-.02.899-.12 1.027-.238v-.594c-.23.121-.667.2-1.058.219l-.3.012c-1.579.058-2.173.992-2.173 3.234 0 1.613.656 2.45 1.903 2.45zm0-.601c-.766 0-1.207-.528-1.207-1.461 0-.887.441-1.39 1.207-1.39.761 0 1.203.503 1.203 1.39 0 .933-.442 1.46-1.203 1.46zm4.843.601c1.122 0 1.88-.808 1.88-2.101 0-1.297-.758-2.102-1.88-2.102-1.125 0-1.882.805-1.882 2.102 0 1.293.757 2.101 1.882 2.101zm0-.597c-.718 0-1.191-.547-1.191-1.504s.473-1.504 1.191-1.504c.72 0 1.188.547 1.188 1.504s-.469 1.504-1.188 1.504zm5.957-3.535h-3.297v.558h1.31V31h.679v-3.504h1.308v-.558zm1.84 2.109L100.527 31h.875l-1.945-2.14 1.891-1.922h-.84l-1.727 1.796h-.031v-1.797h-.68V31h.68v-1.953h.031zm6.309.789c-.113.383-.492.645-1.008.645-.73 0-1.187-.512-1.187-1.29v-.039h2.914v-.258c0-1.23-.676-2.027-1.774-2.027-1.121 0-1.84.856-1.84 2.117 0 1.278.707 2.086 1.871 2.086.887 0 1.575-.523 1.692-1.234h-.668zm-1.067-2.379c.641 0 1.067.484 1.082 1.164h-2.207c.043-.676.489-1.164 1.125-1.164z" fill="#fff"/><g opacity=".7" fill-rule="evenodd" clip-rule="evenodd"><path d="M21.4 11c-.3.3-.4.8-.4 1.4v22.1c0 .6.2 1.1.5 1.4l.1.1L34 23.6v-.2L21.4 11zm17.7 16.5L35 23.4v-.3l4.1-4.1.1.1 4.9 2.8c1.4.8 1.4 2.1 0 2.9l-5 2.7zm-.4.7L34.5 24 22 36.5c.5.5 1.2.5 2.1.1l14.6-8.4m0-9.571l-14.6-8.3c-.9-.5-1.6-.4-2.1.1l12.5 12.4 4.2-4.2z" fill="#fff"/><path d="M21.66 35.3c-.3-.3-.4-.8-.4-1.4v.1c0 .6.2 1.1.5 1.4v-.1h-.1z" fill="#000"/></g></svg>