<svg width="127" height="50" fill="none" xmlns="http://www.w3.org/2000/svg"><path fill-rule="evenodd" clip-rule="evenodd" d="M122.482 50H4.449C1.996 50 0 47.34 0 44.084V5.907C0 2.65 1.996 0 4.449 0h118.033C124.933 0 127 2.65 127 5.907v38.177c0 3.256-2.067 5.916-4.518 5.916z" fill="#004177"/><path d="M39.55 23.558c-.03-3.349 2.736-4.978 2.862-5.054-1.567-2.29-3.995-2.602-4.848-2.627-2.04-.215-4.018 1.223-5.057 1.223-1.06 0-2.66-1.202-4.384-1.167-2.219.034-4.295 1.322-5.433 3.321-2.35 4.076-.598 10.067 1.654 13.362 1.126 1.614 2.441 3.416 4.164 3.352 1.685-.07 2.314-1.076 4.347-1.076 2.015 0 2.606 1.076 4.362 1.036 1.809-.03 2.947-1.621 4.034-3.25 1.301-1.85 1.824-3.67 1.844-3.764-.042-.015-3.511-1.342-3.546-5.356zm-3.319-9.848c.907-1.136 1.527-2.682 1.355-4.25-1.312.059-2.953.91-3.897 2.02-.836.98-1.582 2.584-1.39 4.093 1.474.11 2.987-.745 3.932-1.864z" opacity=".7" fill-rule="evenodd" clip-rule="evenodd" fill="#fff"/><path opacity=".7" d="M53.547 15.363V21h1.894c1.676 0 2.66-1.043 2.66-2.82 0-1.774-.988-2.817-2.66-2.817h-1.894zm.703.633h1.145c1.28 0 1.988.781 1.988 2.191 0 1.399-.711 2.18-1.989 2.18H54.25v-4.37zm7.816 3.84c-.113.383-.492.645-1.007.645-.73 0-1.188-.512-1.188-1.29v-.039h2.914v-.258c0-1.23-.676-2.027-1.773-2.027-1.121 0-1.84.856-1.84 2.117 0 1.278.707 2.086 1.871 2.086.887 0 1.574-.523 1.691-1.234h-.668zM61 17.457c.64 0 1.066.484 1.082 1.164h-2.207c.043-.676.488-1.164 1.125-1.164zm6.305-.52h-.707l-1.125 3.34h-.016l-1.121-3.34h-.715L65.117 21h.695l1.493-4.063zm3.613 2.899c-.113.383-.492.645-1.008.645-.73 0-1.187-.512-1.187-1.29v-.039h2.914v-.258c0-1.23-.676-2.027-1.774-2.027-1.12 0-1.84.856-1.84 2.117 0 1.278.708 2.086 1.871 2.086.887 0 1.575-.523 1.692-1.234h-.668zm-1.066-2.379c.64 0 1.066.484 1.082 1.164h-2.207c.042-.676.488-1.164 1.125-1.164zM72.859 21h.68v-5.637h-.68V21zm3.782.07c1.12 0 1.878-.808 1.878-2.101 0-1.297-.757-2.102-1.878-2.102-1.125 0-1.883.805-1.883 2.102 0 1.293.758 2.101 1.883 2.101zm0-.597c-.72 0-1.192-.547-1.192-1.504s.473-1.504 1.192-1.504c.718 0 1.187.547 1.187 1.504s-.469 1.504-1.187 1.504zm5.039-3.606c-.59 0-1.063.301-1.313.758h-.015v-.688h-.645v5.418h.68V20.34h.015c.242.445.711.73 1.293.73 1.024 0 1.723-.828 1.723-2.101 0-1.274-.703-2.102-1.738-2.102zm-.133 3.606c-.695 0-1.164-.598-1.164-1.504 0-.903.469-1.504 1.164-1.504.722 0 1.176.586 1.176 1.504 0 .922-.454 1.504-1.176 1.504zm3.059.527h.68v-2.547c0-.562.39-.984.929-.984.504 0 .832.32.832.808V21h.68v-2.582c0-.55.379-.95.917-.95.536 0 .844.329.844.884V21h.68v-2.805c0-.804-.52-1.328-1.324-1.328-.57 0-1.047.29-1.274.774h-.015c-.176-.493-.586-.774-1.14-.774-.548 0-.962.29-1.153.719h-.016v-.648h-.64V21zm9.625-1.164c-.114.383-.493.645-1.008.645-.73 0-1.188-.512-1.188-1.29v-.039h2.914v-.258c0-1.23-.676-2.027-1.773-2.027-1.121 0-1.84.856-1.84 2.117 0 1.278.707 2.086 1.871 2.086.887 0 1.574-.523 1.691-1.234h-.667zm-1.067-2.379c.64 0 1.067.484 1.082 1.164H92.04c.043-.676.488-1.164 1.125-1.164zM96.137 21h.68v-2.39c0-.688.417-1.141 1.058-1.141.625 0 .934.36.934 1.015V21h.68v-2.637c0-.922-.516-1.496-1.407-1.496-.629 0-1.063.281-1.289.719h-.016v-.648h-.64V21zm4.937-5.043v.98h-.605v.56h.605v2.448c0 .782.289 1.086 1.035 1.086.161 0 .348-.011.43-.031v-.57c-.047.008-.203.02-.281.02-.348 0-.504-.169-.504-.54v-2.414h.789v-.558h-.789v-.981h-.68zm-47.258 9.258a.424.424 0 00.426-.426.422.422 0 00-.426-.426.427.427 0 000 .852zM53.476 30h.68v-4.063h-.68V30zm2.098 0h.68v-2.39c0-.688.418-1.141 1.059-1.141.624 0 .933.36.933 1.015V30h.68v-2.637c0-.922-.516-1.496-1.407-1.496-.628 0-1.062.281-1.288.719h-.016v-.648h-.64V30zm8.832-4.133c-.59 0-1.062.301-1.312.758h-.016v-.688h-.644v5.418h.68V29.34h.015c.242.445.71.73 1.293.73 1.023 0 1.722-.828 1.722-2.101 0-1.274-.703-2.102-1.738-2.102zm-.133 3.606c-.695 0-1.164-.598-1.164-1.504 0-.903.47-1.504 1.164-1.504.723 0 1.176.586 1.176 1.504 0 .922-.453 1.504-1.176 1.504zm3.059.527h.68v-2.531c0-.575.344-.953.87-.953.165 0 .31.02.364.039v-.66c-.055-.008-.156-.028-.273-.028a.995.995 0 00-.985.735h-.015v-.665h-.641V30zm4.457.07c1.121 0 1.879-.808 1.879-2.101 0-1.297-.758-2.102-1.879-2.102-1.125 0-1.883.805-1.883 2.102 0 1.293.758 2.101 1.883 2.101zm0-.597c-.719 0-1.191-.547-1.191-1.504s.472-1.504 1.191-1.504c.719 0 1.188.547 1.188 1.504s-.47 1.504-1.188 1.504zm4.742 2.058c1.121 0 1.836-.644 1.836-1.613v-3.98h-.648v.683h-.012a1.477 1.477 0 00-1.32-.754c-1.051 0-1.73.813-1.73 2.086 0 1.262.679 2.078 1.714 2.078.57 0 1.05-.289 1.3-.73h.016v.64c0 .606-.425 1.012-1.128 1.012-.508 0-.91-.246-1.043-.617h-.7c.114.691.82 1.195 1.715 1.195zm-.023-2.097c-.7 0-1.156-.57-1.156-1.48 0-.911.457-1.49 1.156-1.49.707 0 1.18.595 1.18 1.49 0 .894-.473 1.48-1.18 1.48zm3.246.566h.68v-2.531c0-.575.343-.953.87-.953.165 0 .31.02.364.039v-.66c-.055-.008-.156-.028-.274-.028a.995.995 0 00-.984.735h-.016v-.665h-.64V30zm5.469-1.164c-.114.383-.492.645-1.008.645-.73 0-1.188-.512-1.188-1.29v-.039h2.914v-.258c0-1.23-.675-2.027-1.773-2.027-1.121 0-1.84.856-1.84 2.117 0 1.278.707 2.086 1.871 2.086.887 0 1.574-.523 1.692-1.234h-.668zm-1.067-2.379c.64 0 1.067.484 1.082 1.164h-2.207c.043-.676.488-1.164 1.125-1.164zm2.903.602c0 .585.37.941 1.136 1.125l.645.156c.465.113.625.281.625.574 0 .367-.34.602-.89.602-.552 0-.864-.223-.946-.688h-.68c.078.762.672 1.242 1.625 1.242.907 0 1.574-.5 1.574-1.207 0-.582-.296-.902-1.117-1.101l-.644-.157c-.453-.109-.66-.3-.66-.582 0-.355.328-.601.824-.601.5 0 .812.262.863.687h.648c-.027-.718-.62-1.242-1.511-1.242-.88 0-1.492.496-1.492 1.192zm4.226 0c0 .585.371.941 1.137 1.125l.644.156c.465.113.625.281.625.574 0 .367-.34.602-.89.602-.551 0-.864-.223-.945-.688h-.68c.078.762.672 1.242 1.625 1.242.906 0 1.574-.5 1.574-1.207 0-.582-.297-.902-1.117-1.101l-.645-.157c-.453-.109-.66-.3-.66-.582 0-.355.328-.601.824-.601.5 0 .813.262.864.687h.648c-.027-.718-.621-1.242-1.512-1.242-.879 0-1.492.496-1.492 1.192z" fill="#fff"/></svg>