<svg width="127" height="50" fill="none" xmlns="http://www.w3.org/2000/svg"><path fill-rule="evenodd" clip-rule="evenodd" d="M122.296 50H4.704C2.07 50 0 47.25 0 43.75V6.25C0 2.75 2.07 0 4.704 0h117.592C124.93 0 127 2.75 127 6.25v37.5c0 3.5-2.07 6.25-4.704 6.25z" fill="#004177"/><path opacity=".7" d="M54.547 15.363V21h1.894c1.676 0 2.66-1.043 2.66-2.82 0-1.774-.988-2.817-2.66-2.817h-1.894zm.703.633h1.145c1.28 0 1.988.781 1.988 2.191 0 1.399-.711 2.18-1.989 2.18H55.25v-4.37zm7.816 3.84c-.113.383-.492.645-1.007.645-.73 0-1.188-.512-1.188-1.29v-.039h2.914v-.258c0-1.23-.676-2.027-1.773-2.027-1.121 0-1.84.856-1.84 2.117 0 1.278.707 2.086 1.871 2.086.887 0 1.574-.523 1.691-1.234h-.668zM62 17.457c.64 0 1.066.484 1.082 1.164h-2.207c.043-.676.488-1.164 1.125-1.164zm6.305-.52h-.707l-1.125 3.34h-.016l-1.121-3.34h-.715L66.117 21h.695l1.493-4.063zm3.613 2.899c-.113.383-.492.645-1.008.645-.73 0-1.187-.512-1.187-1.29v-.039h2.914v-.258c0-1.23-.676-2.027-1.774-2.027-1.12 0-1.84.856-1.84 2.117 0 1.278.708 2.086 1.871 2.086.887 0 1.575-.523 1.692-1.234h-.668zm-1.066-2.379c.64 0 1.066.484 1.082 1.164h-2.207c.042-.676.488-1.164 1.125-1.164zM73.859 21h.68v-5.637h-.68V21zm3.782.07c1.12 0 1.878-.808 1.878-2.101 0-1.297-.757-2.102-1.878-2.102-1.125 0-1.883.805-1.883 2.102 0 1.293.758 2.101 1.883 2.101zm0-.597c-.72 0-1.192-.547-1.192-1.504s.473-1.504 1.192-1.504c.718 0 1.187.547 1.187 1.504s-.469 1.504-1.187 1.504zm5.039-3.606c-.59 0-1.063.301-1.313.758h-.015v-.688h-.645v5.418h.68V20.34h.015c.242.445.711.73 1.293.73 1.024 0 1.723-.828 1.723-2.101 0-1.274-.703-2.102-1.738-2.102zm-.133 3.606c-.695 0-1.164-.598-1.164-1.504 0-.903.469-1.504 1.164-1.504.722 0 1.176.586 1.176 1.504 0 .922-.454 1.504-1.176 1.504zm3.059.527h.68v-2.547c0-.562.39-.984.929-.984.504 0 .832.32.832.808V21h.68v-2.582c0-.55.379-.95.917-.95.536 0 .844.329.844.884V21h.68v-2.805c0-.804-.52-1.328-1.324-1.328-.57 0-1.047.29-1.274.774h-.015c-.176-.493-.586-.774-1.14-.774-.548 0-.962.29-1.153.719h-.016v-.648h-.64V21zm9.625-1.164c-.114.383-.493.645-1.008.645-.73 0-1.188-.512-1.188-1.29v-.039h2.914v-.258c0-1.23-.676-2.027-1.773-2.027-1.121 0-1.84.856-1.84 2.117 0 1.278.707 2.086 1.871 2.086.887 0 1.574-.523 1.691-1.234h-.667zm-1.067-2.379c.64 0 1.067.484 1.082 1.164H93.04c.043-.676.488-1.164 1.125-1.164zM97.137 21h.68v-2.39c0-.688.417-1.141 1.058-1.141.625 0 .934.36.934 1.015V21h.679v-2.637c0-.922-.515-1.496-1.406-1.496-.629 0-1.063.281-1.289.719h-.016v-.648h-.64V21zm4.937-5.043v.98h-.605v.56h.605v2.448c0 .782.289 1.086 1.035 1.086.161 0 .348-.011.43-.031v-.57c-.047.008-.203.02-.281.02-.348 0-.504-.169-.504-.54v-2.414h.789v-.558h-.789v-.981h-.68zm-47.258 9.258a.424.424 0 00.426-.426.422.422 0 00-.426-.426.427.427 0 000 .852zM54.476 30h.68v-4.063h-.68V30zm2.098 0h.68v-2.39c0-.688.418-1.141 1.059-1.141.624 0 .933.36.933 1.015V30h.68v-2.637c0-.922-.516-1.496-1.407-1.496-.628 0-1.062.281-1.288.719h-.016v-.648h-.64V30zm8.832-4.133c-.59 0-1.062.301-1.312.758h-.016v-.688h-.644v5.418h.68V29.34h.015c.242.445.71.73 1.293.73 1.023 0 1.722-.828 1.722-2.101 0-1.274-.703-2.102-1.738-2.102zm-.133 3.606c-.695 0-1.164-.598-1.164-1.504 0-.903.47-1.504 1.164-1.504.723 0 1.176.586 1.176 1.504 0 .922-.453 1.504-1.176 1.504zm3.059.527h.68v-2.531c0-.575.344-.953.87-.953.165 0 .31.02.364.039v-.66c-.055-.008-.156-.028-.273-.028a.995.995 0 00-.985.735h-.015v-.665h-.641V30zm4.457.07c1.121 0 1.879-.808 1.879-2.101 0-1.297-.758-2.102-1.879-2.102-1.125 0-1.883.805-1.883 2.102 0 1.293.758 2.101 1.883 2.101zm0-.597c-.719 0-1.191-.547-1.191-1.504s.472-1.504 1.191-1.504c.719 0 1.188.547 1.188 1.504s-.47 1.504-1.188 1.504zm4.742 2.058c1.121 0 1.836-.644 1.836-1.613v-3.98h-.648v.683h-.012a1.477 1.477 0 00-1.32-.754c-1.051 0-1.73.813-1.73 2.086 0 1.262.679 2.078 1.714 2.078.57 0 1.05-.289 1.3-.73h.016v.64c0 .606-.425 1.012-1.128 1.012-.508 0-.91-.246-1.043-.617h-.7c.114.691.82 1.195 1.715 1.195zm-.023-2.097c-.7 0-1.156-.57-1.156-1.48 0-.911.457-1.49 1.156-1.49.707 0 1.18.595 1.18 1.49 0 .894-.473 1.48-1.18 1.48zm3.246.566h.68v-2.531c0-.575.343-.953.87-.953.165 0 .31.02.364.039v-.66c-.055-.008-.156-.028-.274-.028a.995.995 0 00-.984.735h-.016v-.665h-.64V30zm5.469-1.164c-.114.383-.492.645-1.008.645-.73 0-1.188-.512-1.188-1.29v-.039h2.914v-.258c0-1.23-.675-2.027-1.773-2.027-1.121 0-1.84.856-1.84 2.117 0 1.278.707 2.086 1.871 2.086.887 0 1.574-.523 1.692-1.234h-.668zm-1.067-2.379c.64 0 1.067.484 1.082 1.164h-2.207c.043-.676.488-1.164 1.125-1.164zm2.903.602c0 .585.37.941 1.136 1.125l.645.156c.465.113.625.281.625.574 0 .367-.34.602-.89.602-.552 0-.864-.223-.946-.688h-.68c.078.762.672 1.242 1.625 1.242.907 0 1.574-.5 1.574-1.207 0-.582-.296-.902-1.117-1.101l-.644-.157c-.453-.109-.66-.3-.66-.582 0-.355.328-.601.824-.601.5 0 .812.262.863.687h.648c-.027-.718-.62-1.242-1.511-1.242-.88 0-1.492.496-1.492 1.192zm4.226 0c0 .585.371.941 1.137 1.125l.644.156c.465.113.625.281.625.574 0 .367-.34.602-.89.602-.551 0-.864-.223-.945-.688h-.68c.078.762.672 1.242 1.625 1.242.906 0 1.574-.5 1.574-1.207 0-.582-.297-.902-1.117-1.101l-.645-.157c-.453-.109-.66-.3-.66-.582 0-.355.328-.601.824-.601.5 0 .813.262.864.687h.648c-.027-.718-.621-1.242-1.512-1.242-.879 0-1.492.496-1.492 1.192z" fill="#fff"/><g opacity=".7" fill-rule="evenodd" clip-rule="evenodd"><path d="M21.4 11c-.3.3-.4.8-.4 1.4v22.1c0 .6.2 1.1.5 1.4l.1.1L34 23.6v-.2L21.4 11zm17.7 16.5L35 23.4v-.3l4.1-4.1.1.1 4.9 2.8c1.4.8 1.4 2.1 0 2.9l-5 2.7zm-.4.7L34.5 24 22 36.5c.5.5 1.2.5 2.1.1l14.6-8.4m0-9.571l-14.6-8.3c-.9-.5-1.6-.4-2.1.1l12.5 12.4 4.2-4.2z" fill="#fff"/><path d="M21.66 35.3c-.3-.3-.4-.8-.4-1.4v.1c0 .6.2 1.1.5 1.4v-.1h-.1z" fill="#000"/></g></svg>