<svg width="22" height="21" fill="none" xmlns="http://www.w3.org/2000/svg"><path d="M15.032 8.217c-.025 2.68-1.68 5.198-4.209 6.114-2.603.95-5.493.144-7.265-1.993-1.73-2.095-1.899-5.19-.513-7.505 1.386-2.315 4.167-3.562 6.796-3.01 3.007.636 5.166 3.307 5.19 6.394.01 1.094 1.69 1.094 1.68 0-.024-3.452-2.175-6.538-5.383-7.734C8.169-.696 4.423.339 2.306 2.984.156 5.664-.18 9.49 1.6 12.457c1.773 2.96 5.234 4.46 8.585 3.807 3.772-.73 6.502-4.214 6.527-8.056.008-1.077-1.672-1.085-1.68.009z" fill="#C9C9C9"/><path d="M13.528 13.601l5.754 5.81.823.83c.765.772 1.958-.424 1.185-1.195l-5.754-5.81-.823-.83c-.765-.772-1.95.424-1.185 1.195z" fill="#C9C9C9"/></svg>