<svg width="69" height="63" fill="none" xmlns="http://www.w3.org/2000/svg"><path d="M61.534 7.208H7.177c-1.638 0-3.21.655-4.368 1.819A6.225 6.225 0 001 13.417v42.219a6.22 6.22 0 001.81 4.39 6.161 6.161 0 004.367 1.818h54.357c1.638 0 3.21-.654 4.368-1.818a6.225 6.225 0 001.809-4.39V13.417a6.223 6.223 0 00-1.81-4.39 6.161 6.161 0 00-4.367-1.818zm0 52.153H7.177a3.697 3.697 0 01-2.62-1.091 3.735 3.735 0 01-1.086-2.634V13.417c0-.988.39-1.935 1.085-2.634a3.697 3.697 0 012.62-1.091h54.358c.983 0 1.925.392 2.62 1.091a3.735 3.735 0 011.086 2.634v11.176H40.532a9.858 9.858 0 00-6.988 2.91 9.96 9.96 0 00-2.895 7.023 9.96 9.96 0 002.895 7.024 9.857 9.857 0 006.988 2.91H65.24v11.176c0 .987-.39 1.935-1.085 2.634a3.697 3.697 0 01-2.621 1.09zm3.706-17.384H40.532a7.393 7.393 0 01-5.241-2.182 7.47 7.47 0 01-2.171-5.269c0-1.976.78-3.87 2.171-5.268a7.393 7.393 0 015.241-2.182H65.24v14.9zM8.412 3.483h51.886c.328 0 .642-.13.874-.363a1.245 1.245 0 000-1.756A1.232 1.232 0 0060.3 1H8.411c-.327 0-.641.13-.873.364a1.245 1.245 0 000 1.756c.232.233.546.363.873.363z" fill="#2EBBE1" stroke="#2EBBE1" stroke-width=".8"/><circle cx="40.906" cy="34" r="2" fill="#2EBBE1" stroke="#2EBBE1" stroke-width=".8"/></svg>