<svg width="10" height="14" fill="none" xmlns="http://www.w3.org/2000/svg"><path d="M1.765 5.294V2.965C1.765 1.328 3.213 0 5 0s3.235 1.329 3.235 2.965v2.33h.657c.612 0 1.108.527 1.108 1.175v5.884c0 .65-.496 1.175-1.108 1.175H1.108C.496 13.53 0 13.002 0 12.354V6.47c0-.65.496-1.176 1.108-1.176h.657zm-.589 1.177v5.882h7.648V6.47H1.176zM7.06 5.294V2.965c0-.963-.9-1.789-2.059-1.789-1.16 0-2.059.825-2.059 1.79v2.328H7.06zM4.412 8.697c0-.325.26-.588.588-.588.325 0 .588.26.588.588v1.765A.587.587 0 015 11.05a.587.587 0 01-.588-.588V8.697z" fill="#2EBBE1"/></svg>