<svg width="79" height="67" fill="none" xmlns="http://www.w3.org/2000/svg"><path d="M50.08 54.176a.949.949 0 00-1.343 0l-8.45 8.468V27.801a.951.951 0 00-.95-.952.951.951 0 00-.95.952v34.843l-8.45-8.468a.949.949 0 00-1.344 0 .953.953 0 000 1.346l10.072 10.093a.954.954 0 001.036.206.953.953 0 00.308-.206l10.072-10.093a.953.953 0 000-1.346z" fill="#2EBBE1" stroke="#2EBBE1"/><path d="M62.925 47.493H46.222a.951.951 0 010-1.904h16.703c7.085 0 12.85-5.777 12.85-12.878 0-7.1-5.765-12.875-12.85-12.875H58.78a.952.952 0 01-.923-.724C55.502 9.569 47.01 2.904 37.207 2.904c-11.743 0-21.297 9.574-21.297 21.342a.951.951 0 01-.95.952h-1.886c-5.61 0-10.174 4.575-10.174 10.197 0 5.62 4.564 10.194 10.174 10.194h19.38a.951.951 0 010 1.904h-19.38C6.416 47.493 1 42.065 1 35.395c0-6.672 5.416-12.1 12.074-12.1h.956C14.53 10.915 24.735 1 37.208 1 47.636 1 56.703 7.925 59.51 17.932h3.414c8.133 0 14.75 6.63 14.75 14.779 0 8.15-6.617 14.782-14.75 14.782z" fill="#2EBBE1" stroke="#2EBBE1"/></svg>