<svg width="35" height="35" fill="none" xmlns="http://www.w3.org/2000/svg"><path fill-rule="evenodd" clip-rule="evenodd" d="M16.188 16.188h-7.88A1.31 1.31 0 007 17.5c0 .723.586 1.313 1.309 1.313h7.879v8.316a1.31 1.31 0 001.312 1.308c.723 0 1.313-.585 1.313-1.308v-8.317h8.316a1.31 1.31 0 001.308-1.312c0-.723-.585-1.313-1.308-1.313h-8.317V8.31A1.31 1.31 0 0017.5 7c-.723 0-1.313.586-1.313 1.309v7.879zM17.5 35C27.165 35 35 27.165 35 17.5S27.165 0 17.5 0 0 7.835 0 17.5 7.835 35 17.5 35z" fill="#2EBBE1"/></svg>