<svg width="40" height="24" fill="none" xmlns="http://www.w3.org/2000/svg"><path d="M1.118 10.63C1.87 9.593 8.601.67 19.886.67 31.17.669 37.9 9.592 38.653 10.63c.594.807.594 1.923 0 2.808l-.079.115c-1.742 2.308-8.196 9.808-18.688 9.808C8.6 23.362 1.87 14.439 1.118 13.4a2.375 2.375 0 010-2.77zm18.768 10.81c9.581 0 15.48-6.924 17.065-9.039l.04-.038c.118-.231.158-.462 0-.654-.674-.923-6.81-9.116-17.105-9.116-10.295 0-16.432 8.193-17.105 9.116a.576.576 0 000 .615c.673.962 6.81 9.116 17.105 9.116z" fill="#004A87"/><path d="M19.886 4.015c4.553 0 8.236 3.577 8.236 8 0 4.424-3.683 8-8.236 8-4.553 0-8.236-3.576-8.236-8 0-4.423 3.683-8 8.236-8zm0 14.078c3.445 0 6.256-2.731 6.256-6.078 0-3.346-2.811-6.077-6.256-6.077-3.445 0-6.256 2.731-6.256 6.077 0 3.347 2.811 6.078 6.256 6.078z" fill="#004A87"/></svg>