<svg width="31" height="13" fill="none" xmlns="http://www.w3.org/2000/svg"><path d="M1.301 11.258c-1.37-3.332.516-6.044 1.268-6.795.22-.22 3.474-3.839 13.1-4.092 7.746-.203 12.287 3.367 13.1 4.095.792.71 2.46 2.807 1.27 6.795-.148.495-.707 1.207-1.036 1.207-.146 0-5.896-1.404-6.072-1.465a1.13 1.13 0 01-.435-.263c-.163-.164-.251-.484-.264-.962a8.414 8.414 0 01.086-1.434c.07-.478.106-.948.11-1.41.004-.46-.067-.765-.214-.912-.398-.366-2.077-1.42-6.55-1.132-4.476.288-6.212.846-6.363.915-.152.07-.264.142-.337.215-.147.147-.219.451-.215.913.005.461.29 2.284.278 2.762-.013.478-.1.799-.264.962a1.13 1.13 0 01-.435.263c-.175.062-5.852 1.547-5.99 1.545-.377-.005-.84-.73-1.037-1.207z" fill="#fff"/></svg>