<svg width="59" height="54" fill="none" xmlns="http://www.w3.org/2000/svg"><path d="M53.037 6.23H5.583c-1.43 0-2.802.57-3.813 1.587A5.434 5.434 0 00.19 11.65v36.857c0 1.438.569 2.817 1.58 3.833a5.379 5.379 0 003.813 1.587h47.454c1.43 0 2.802-.57 3.813-1.587a5.434 5.434 0 001.58-3.833V11.65a5.434 5.434 0 00-1.58-3.833 5.379 5.379 0 00-3.813-1.587zm0 45.53H5.583a3.227 3.227 0 01-2.288-.953 3.26 3.26 0 01-.948-2.3V11.65c0-.863.341-1.69.948-2.3a3.227 3.227 0 012.288-.952h47.454c.858 0 1.681.342 2.288.952a3.26 3.26 0 01.948 2.3v9.756h-21.57a8.606 8.606 0 00-6.101 2.54 8.695 8.695 0 00-2.527 6.133c0 2.3.909 4.505 2.527 6.132a8.606 8.606 0 006.1 2.54h21.571v9.756c0 .863-.34 1.69-.948 2.3-.607.61-1.43.952-2.288.952zm3.236-15.177h-21.57a6.454 6.454 0 01-4.576-1.905 6.521 6.521 0 01-1.895-4.6 6.52 6.52 0 011.895-4.599 6.455 6.455 0 014.576-1.905h21.57v13.009zM6.662 2.978h45.297c.286 0 .56-.115.763-.318a1.087 1.087 0 00-.763-1.85H6.662c-.287 0-.56.114-.763.317a1.087 1.087 0 00.763 1.85z" fill="#fff"/><circle cx="35.029" cy="29.619" r="1.746" fill="#fff"/></svg>