<svg width="73" height="73" fill="none" xmlns="http://www.w3.org/2000/svg"><path d="M36.288 1c19.486 0 35.287 15.869 35.287 35.438 0 19.569-15.801 35.438-35.287 35.438C16.8 71.876 1 56.006 1 36.438 1 16.868 16.801 1 36.288 1zm0 1.964c-18.406 0-33.333 14.99-33.333 33.474 0 18.483 14.927 33.474 33.333 33.474 18.405 0 33.332-14.99 33.332-33.474 0-18.484-14.927-33.474-33.332-33.474z" fill="#2EBBE1" stroke="#2EBBE1" stroke-width="1.3"/><path d="M22.677 43.31c0 11.743 27.222 11.743 27.222 0h-1.955c0 9.11-23.312 9.11-23.312 0h-1.956zm20.379-15.453c0-8.024 12.135-8.024 12.135 0h-1.965c0-5.428-8.206-5.428-8.206 0h-1.964zm-25.672 0c0-8.024 12.136-8.024 12.136 0h-1.965c0-5.428-8.206-5.428-8.206 0h-1.965z" fill="#2EBBE1" stroke="#2EBBE1" stroke-width="1.3"/></svg>