<svg width="64" height="64" fill="none" xmlns="http://www.w3.org/2000/svg"><path d="M32.106 6.929a.965.965 0 00-.845.994v3.59a.973.973 0 00.593.907.962.962 0 001.27-.533.973.973 0 00.069-.373v-3.59a.973.973 0 00-.672-.957.962.962 0 00-.415-.038zm0 0l.031.248m-.03-.248h-.001l.031.248m0 0a.715.715 0 00-.626.742h1.432a.723.723 0 00-.499-.714.713.713 0 00-.307-.028zm-.03 45.072a.963.963 0 00-.617.335m.616-.335l-.617.335m.617-.335a.963.963 0 01.414.038l-.076.238.076-.238a.966.966 0 01.673.956v3.591a.973.973 0 01-.593.906.963.963 0 01-1.27-.533.973.973 0 01-.069-.373v-3.59m.845-.995l-.845.994m.229-.659a.972.972 0 00-.229.66m.229-.66l-.229.66M63.26 32.485a.434.434 0 00-.003-.024l.002-.085v-.002c0-17.21-13.901-31.18-31.032-31.18-17.132 0-31.033 13.97-31.033 31.182 0 17.212 13.901 31.183 31.033 31.183 14.84 0 27.231-10.514 30.286-24.51.012-.039.02-.09.028-.131a46.6 46.6 0 00.144-.997 154.337 154.337 0 00.51-4.373c.028-.3.05-.555.06-.742a3.74 3.74 0 00.009-.233.93.93 0 00-.004-.088zM32.227 3.133c15.783 0 28.62 12.606 29.088 28.354a441.553 441.553 0 00-.678 7.171C57.767 51.78 46.15 61.621 32.226 61.621c-16.08 0-29.1-13.083-29.1-29.244 0-16.16 13.02-29.244 29.1-29.244zM19.135 18.464h0-.004a.967.967 0 00-.694 1.303l7.18 18.702.002.002a.97.97 0 00.543.545l.002.001 18.585 7.192.003.001a.962.962 0 001.038-.205.97.97 0 00.228-1.037v-.002l-7.182-18.703v-.002a.97.97 0 00-.544-.546h-.002l-18.586-7.192a.962.962 0 00-.569-.059zm18.066 8.913l6.224 16.253-16.172-6.275-6.224-16.253 16.172 6.275zm-4.974 2.592a2.403 2.403 0 00-2.398 2.408 2.403 2.403 0 002.398 2.408 2.403 2.403 0 002.398-2.408 2.403 2.403 0 00-2.398-2.408zM7.729 31.41a.968.968 0 00-.874 1.059.973.973 0 001.043.878h3.567a.961.961 0 00.903-.595.972.972 0 00-.903-1.343H7.898a.96.96 0 00-.169 0zm45.1 0a.968.968 0 00-.874 1.059.973.973 0 001.043.878h3.567a.961.961 0 00.903-.595.972.972 0 00-.903-1.343h-3.567a.96.96 0 00-.169 0z" fill="#fff" stroke="#fff" stroke-width=".5"/></svg>