<svg width="74" height="62" fill="none" xmlns="http://www.w3.org/2000/svg"><path d="M41.65 31a15.11 15.11 0 10-15.1-15.1A15.12 15.12 0 0041.65 31zm0-28.21a13.11 13.11 0 11-13.1 13.11 13.112 13.112 0 0113.1-13.13v.02zM69 40.4c-.296 0-.59.03-.88.09a.45.45 0 01-.11 0c-.195.047-.386.11-.57.19l-15.17 5a4.53 4.53 0 00.08-.75 4.18 4.18 0 00-4.16-4.17H38c-.19-.32-.4-.63-.61-.92a10 10 0 00-8-4H16.12v-3.07a1 1 0 00-1-1H1.87a1 1 0 00-1 1v23.59a1 1 0 001 1h13.25a1 1 0 001-1v-2l20.43 6.14a11.18 11.18 0 009.7-1.06l24.26-11.01a4.17 4.17 0 00-1.56-8l.05-.03zm-54.84 15H2.87V33.77h11.25l.04 21.63zm55.47-8.71l-24.09 11h-.09a9.182 9.182 0 01-8.08.91l-21.25-6.28V37.86h13.27a7.92 7.92 0 016.39 3.2c.256.346.487.71.69 1.09a1 1 0 00.92.62h10.74a2.17 2.17 0 012.16 2.17 2.14 2.14 0 01-.7 1.6 2.1 2.1 0 01-1.46.56H29.79a1 1 0 100 2h18.36a4.06 4.06 0 002.33-.74l18-5.91a1.7 1.7 0 01.52-.05 2.17 2.17 0 012.17 2.16 2.21 2.21 0 01-1.58 2.09l.04.04z" fill="#2EBBE1" stroke="#2EBBE1" stroke-width=".4"/><path d="M47.72 18.986a.9.9 0 01.092 1.27c-1.25 1.447-2.924 2.244-4.712 2.244-2.749 0-5.312-1.938-6.24-5.1H34.7a.9.9 0 110-1.8h1.836c-.027-.4-.027-.8 0-1.2H34.7a.9.9 0 110-1.8h2.16c.93-3.167 3.496-5.1 6.24-5.1 1.788 0 3.462.797 4.713 2.245a.9.9 0 01-1.363 1.176c-.904-1.045-2.092-1.62-3.35-1.62-1.992 0-3.607 1.415-4.35 3.3h3.15a.9.9 0 110 1.8h-3.578a6.68 6.68 0 000 1.2H41.9a.9.9 0 110 1.8h-3.15c.745 1.89 2.364 3.3 4.35 3.3 1.258 0 2.447-.577 3.35-1.622a.902.902 0 011.27-.093z" fill="#2EBBE1" stroke="#2EBBE1" stroke-width=".4"/></svg>