<svg width="25" height="25" fill="none" xmlns="http://www.w3.org/2000/svg"><path d="M24.626 21.002c-1.387 3.326-4.639 3.909-5.701 3.909-.312 0-5.171.257-12.156-6.37C1.147 13.207.46 7.47.4 6.38.342 5.322.646 2.659 4.308.68 4.762.434 5.661.326 5.894.558 5.997.661 9.07 5.72 9.15 5.888c.081.167.122.332.122.494 0 .23-.165.52-.494.866a8.42 8.42 0 01-1.075.953 10.46 10.46 0 00-1.074.92c-.33.322-.494.588-.494.796.022.54.464 2.473 3.832 5.432 3.368 2.96 4.99 3.794 5.146 3.852.156.058.286.087.39.087.208 0 .474-.165.797-.494.323-.33 1.41-1.82 1.757-2.15.347-.329.636-.493.867-.493.162 0 .326.04.493.12.168.082 5.232 3.046 5.33 3.145.262.27.076 1.11-.122 1.586z" fill="#fff"/></svg>