<svg width="74" height="74" fill="none" xmlns="http://www.w3.org/2000/svg"><path d="M37 0a37.143 37.143 0 00-20.556 6.202A36.844 36.844 0 002.816 22.717 36.615 36.615 0 00.711 43.98a36.738 36.738 0 0010.126 18.843 37.062 37.062 0 0018.945 10.07A37.187 37.187 0 0051.159 70.8a36.957 36.957 0 0016.605-13.554A36.659 36.659 0 0074 36.8a36.738 36.738 0 00-10.848-26.01A37.14 37.14 0 0037 0zm0 71.3a34.822 34.822 0 01-19.271-5.814A34.54 34.54 0 014.953 50.003a34.327 34.327 0 01-1.974-19.934 34.443 34.443 0 019.493-17.664 34.747 34.747 0 0117.76-9.442 34.863 34.863 0 0120.042 1.963 34.647 34.647 0 0115.568 12.707A34.368 34.368 0 0171.688 36.8a34.444 34.444 0 01-10.172 24.384A34.821 34.821 0 0137 71.3z" fill="#2EBBE1"/><path d="M53.419 24.441l-22.393 22.28-10.445-10.396a1.16 1.16 0 00-1.606.028 1.147 1.147 0 00-.028 1.597l11.262 11.208a1.16 1.16 0 001.634 0l23.21-23.091a1.146 1.146 0 00-.028-1.598 1.16 1.16 0 00-1.606-.028z" fill="#2EBBE1"/></svg>