<svg width="13" height="14" fill="none" xmlns="http://www.w3.org/2000/svg"><path d="M.038 5.415a.804.804 0 01.242-.378.726.726 0 01.396-.175l3.515-.407 1.449-3.44a.793.793 0 01.278-.347.721.721 0 01.822 0 .793.793 0 01.278.347l1.448 3.44 3.516.407a.733.733 0 01.395.177.811.811 0 01.242.376.86.86 0 01.012.457.819.819 0 01-.222.39L9.79 8.795l.721 3.69c.03.152.018.31-.035.454a.803.803 0 01-.26.362.719.719 0 01-.82.049l-3.068-1.875L3.26 13.35a.719.719 0 01-.82-.049.803.803 0 01-.26-.362.858.858 0 01-.036-.454l.722-3.69L.25 6.262a.81.81 0 01-.224-.39.851.851 0 01.013-.457z" fill="#E74386"/></svg>