<svg width="59" height="61" viewBox="0 0 59 61" fill="none" xmlns="http://www.w3.org/2000/svg">
<mask id="path-1-outside-1" maskUnits="userSpaceOnUse" x="0" y="0" width="59" height="61" fill="black">
<rect fill="white" width="59" height="61"/>
<path fill-rule="evenodd" clip-rule="evenodd" d="M48.802 22.8072L37.081 22.8062C36.592 22.8062 36.204 22.4492 36.117 21.9852C36.048 21.8502 36 21.7022 36 21.5392V10.2253C36 9.67325 36.448 9.22525 37 9.22525C37.552 9.22525 38 9.67325 38 10.2253V19.8792L56.587 1.29325C56.978 0.90225 57.61 0.90225 58.001 1.29325C58.392 1.68425 58.392 2.31625 58.001 2.70725L39.902 20.8062L48.802 20.8072C49.355 20.8072 49.802 21.2542 49.802 21.8072C49.802 22.3592 49.354 22.8072 48.802 22.8072ZM1.2148 9.19838C1.35387 9.04493 1.54532 8.94905 1.75151 8.92962C1.7774 8.92841 1.80335 8.92841 1.82925 8.92962H8.18855C8.1969 8.9295 8.20532 8.9295 8.21381 8.92962H8.46315C8.47164 8.9295 8.48006 8.9295 8.48841 8.92962H19.4506C19.5685 8.93016 19.685 8.95588 19.7923 9.00503C19.8995 9.05419 19.9951 9.12561 20.0725 9.21463C20.1584 9.31124 20.2205 9.42662 20.2539 9.55152L23.8559 23.0782C23.9119 23.2877 23.8836 23.5109 23.777 23.6999C23.6704 23.8888 23.4941 24.0284 23.2858 24.0888L17.507 25.6436C19.3175 29.5217 21.7428 33.1969 24.9443 36.3976C28.1513 39.6039 31.8126 42.0245 35.6984 43.8347L37.2533 38.0561C37.2804 37.9506 37.3281 37.8514 37.3937 37.7644C37.4592 37.6773 37.5412 37.604 37.6351 37.5486C37.7289 37.4933 37.8328 37.457 37.9407 37.4417C38.0486 37.4265 38.1584 37.4327 38.2639 37.46L51.7908 41.0879C51.9689 41.1339 52.1266 41.2378 52.2392 41.3832C52.3518 41.5286 52.4129 41.7073 52.4128 41.8912V59.5122C52.4128 59.7321 52.3254 59.943 52.1699 60.0985C52.0144 60.254 51.8035 60.3414 51.5835 60.3414C38.6448 60.3336 25.6914 55.3593 15.8226 45.4931C5.95376 35.6267 1.0081 22.6945 1.00001 9.75884C0.999114 9.55175 1.07574 9.35184 1.2148 9.19838ZM8.46315 10.5881H8.21381C8.20408 10.5882 8.19444 10.5882 8.18489 10.5881H2.71031C2.92468 22.8226 7.67317 34.9879 17.0147 44.327C26.356 53.6659 38.5166 58.4171 50.7543 58.6312V42.539L38.6526 39.2739L37.02 45.2858C36.9892 45.402 36.9335 45.51 36.8568 45.6025C36.78 45.695 36.6842 45.7697 36.5757 45.8214C36.4673 45.8732 36.3489 45.9007 36.2287 45.9022C36.1086 45.9037 35.9895 45.8791 35.8798 45.83C31.4885 43.9158 27.3451 41.1558 23.7522 37.5637C20.1593 33.9716 17.4273 29.8535 15.5117 25.4622C15.4626 25.3526 15.438 25.2335 15.4394 25.1134C15.4409 24.9932 15.4685 24.8748 15.5203 24.7664C15.572 24.658 15.6467 24.562 15.7392 24.4853C15.8317 24.4086 15.9397 24.3529 16.0559 24.3221L22.0678 22.6895L18.8027 10.5881H8.49207C8.48252 10.5882 8.47288 10.5882 8.46315 10.5881Z"/>
</mask>
<path fill-rule="evenodd" clip-rule="evenodd" d="M48.802 22.8072L37.081 22.8062C36.592 22.8062 36.204 22.4492 36.117 21.9852C36.048 21.8502 36 21.7022 36 21.5392V10.2253C36 9.67325 36.448 9.22525 37 9.22525C37.552 9.22525 38 9.67325 38 10.2253V19.8792L56.587 1.29325C56.978 0.90225 57.61 0.90225 58.001 1.29325C58.392 1.68425 58.392 2.31625 58.001 2.70725L39.902 20.8062L48.802 20.8072C49.355 20.8072 49.802 21.2542 49.802 21.8072C49.802 22.3592 49.354 22.8072 48.802 22.8072ZM1.2148 9.19838C1.35387 9.04493 1.54532 8.94905 1.75151 8.92962C1.7774 8.92841 1.80335 8.92841 1.82925 8.92962H8.18855C8.1969 8.9295 8.20532 8.9295 8.21381 8.92962H8.46315C8.47164 8.9295 8.48006 8.9295 8.48841 8.92962H19.4506C19.5685 8.93016 19.685 8.95588 19.7923 9.00503C19.8995 9.05419 19.9951 9.12561 20.0725 9.21463C20.1584 9.31124 20.2205 9.42662 20.2539 9.55152L23.8559 23.0782C23.9119 23.2877 23.8836 23.5109 23.777 23.6999C23.6704 23.8888 23.4941 24.0284 23.2858 24.0888L17.507 25.6436C19.3175 29.5217 21.7428 33.1969 24.9443 36.3976C28.1513 39.6039 31.8126 42.0245 35.6984 43.8347L37.2533 38.0561C37.2804 37.9506 37.3281 37.8514 37.3937 37.7644C37.4592 37.6773 37.5412 37.604 37.6351 37.5486C37.7289 37.4933 37.8328 37.457 37.9407 37.4417C38.0486 37.4265 38.1584 37.4327 38.2639 37.46L51.7908 41.0879C51.9689 41.1339 52.1266 41.2378 52.2392 41.3832C52.3518 41.5286 52.4129 41.7073 52.4128 41.8912V59.5122C52.4128 59.7321 52.3254 59.943 52.1699 60.0985C52.0144 60.254 51.8035 60.3414 51.5835 60.3414C38.6448 60.3336 25.6914 55.3593 15.8226 45.4931C5.95376 35.6267 1.0081 22.6945 1.00001 9.75884C0.999114 9.55175 1.07574 9.35184 1.2148 9.19838ZM8.46315 10.5881H8.21381C8.20408 10.5882 8.19444 10.5882 8.18489 10.5881H2.71031C2.92468 22.8226 7.67317 34.9879 17.0147 44.327C26.356 53.6659 38.5166 58.4171 50.7543 58.6312V42.539L38.6526 39.2739L37.02 45.2858C36.9892 45.402 36.9335 45.51 36.8568 45.6025C36.78 45.695 36.6842 45.7697 36.5757 45.8214C36.4673 45.8732 36.3489 45.9007 36.2287 45.9022C36.1086 45.9037 35.9895 45.8791 35.8798 45.83C31.4885 43.9158 27.3451 41.1558 23.7522 37.5637C20.1593 33.9716 17.4273 29.8535 15.5117 25.4622C15.4626 25.3526 15.438 25.2335 15.4394 25.1134C15.4409 24.9932 15.4685 24.8748 15.5203 24.7664C15.572 24.658 15.6467 24.562 15.7392 24.4853C15.8317 24.4086 15.9397 24.3529 16.0559 24.3221L22.0678 22.6895L18.8027 10.5881H8.49207C8.48252 10.5882 8.47288 10.5882 8.46315 10.5881Z" fill="#2EBBE1"/>
<path d="M8.46315 8.82962H8.21381V9.02962H8.46315V8.82962ZM37.081 22.8062L37.081 22.6062H37.081V22.8062ZM48.802 22.8072L48.802 23.0072H48.802V22.8072ZM36.117 21.9852L36.3136 21.9484L36.3082 21.92L36.2951 21.8942L36.117 21.9852ZM38 19.8792H37.8V20.3621L38.1414 20.0207L38 19.8792ZM56.587 1.29325L56.7284 1.43468L56.7284 1.43467L56.587 1.29325ZM58.001 2.70725L58.1424 2.84867L58.1424 2.84867L58.001 2.70725ZM39.902 20.8062L39.7606 20.6648L39.4192 21.0062L39.902 21.0062L39.902 20.8062ZM48.802 20.8072L48.802 21.0072H48.802V20.8072ZM1.75151 8.92962L1.74212 8.72962L1.73274 8.7305L1.75151 8.92962ZM1.2148 9.19838L1.363 9.33269L1.363 9.33269L1.2148 9.19838ZM1.82925 8.92962L1.81986 9.12962H1.82925V8.92962ZM8.18855 8.92962L8.18855 9.12964L8.1914 9.1296L8.18855 8.92962ZM8.21381 8.92962L8.21098 9.12962H8.21381V8.92962ZM8.46315 8.92962L8.46315 9.12964L8.46598 9.1296L8.46315 8.92962ZM8.48841 8.92962L8.48556 9.12962H8.48841V8.92962ZM19.4506 8.92962L19.4515 8.72962H19.4506V8.92962ZM19.7923 9.00503L19.709 9.18685L19.709 9.18685L19.7923 9.00503ZM20.0725 9.21463L19.9216 9.34589L19.923 9.34751L20.0725 9.21463ZM20.2539 9.55152L20.4471 9.50005L20.4471 9.49988L20.2539 9.55152ZM23.8559 23.0782L23.6626 23.1297L23.6627 23.1298L23.8559 23.0782ZM23.777 23.6999L23.9512 23.7981L23.9512 23.7981L23.777 23.6999ZM23.2858 24.0888L23.3378 24.282L23.3415 24.2809L23.2858 24.0888ZM17.507 25.6436L17.4551 25.4505L17.225 25.5123L17.3258 25.7282L17.507 25.6436ZM24.9443 36.3976L24.8029 36.5391L24.8029 36.5391L24.9443 36.3976ZM35.6984 43.8347L35.614 44.016L35.8297 44.1165L35.8916 43.8866L35.6984 43.8347ZM37.2533 38.0561L37.4464 38.1081L37.4469 38.106L37.2533 38.0561ZM38.2639 37.46L38.3157 37.2668L38.3139 37.2664L38.2639 37.46ZM51.7908 41.0879L51.739 41.2811L51.7408 41.2816L51.7908 41.0879ZM52.4128 41.8912L52.2128 41.8911V41.8912H52.4128ZM52.4128 59.5122L52.6128 59.5122V59.5122H52.4128ZM51.5835 60.3414L51.5834 60.5414L51.5836 60.5414L51.5835 60.3414ZM15.8226 45.4931L15.6812 45.6346L15.6812 45.6346L15.8226 45.4931ZM1.00001 9.75884L1.20001 9.75871L1.20001 9.75798L1.00001 9.75884ZM8.21381 10.5881L8.21381 10.388L8.21099 10.3881L8.21381 10.5881ZM8.46315 10.5881L8.46597 10.3881H8.46315V10.5881ZM8.18489 10.5881L8.18775 10.3881H8.18489V10.5881ZM2.71031 10.5881V10.3881H2.50678L2.51034 10.5916L2.71031 10.5881ZM17.0147 44.327L16.8733 44.4685L16.8733 44.4685L17.0147 44.327ZM50.7543 58.6312L50.7508 58.8311L50.9543 58.8347V58.6312H50.7543ZM50.7543 42.539H50.9543V42.3858L50.8064 42.3459L50.7543 42.539ZM38.6526 39.2739L38.7047 39.0808L38.5119 39.0288L38.4596 39.2215L38.6526 39.2739ZM37.02 45.2858L36.827 45.2334L36.8267 45.2345L37.02 45.2858ZM35.8798 45.83L35.9615 45.6475L35.9598 45.6467L35.8798 45.83ZM23.7522 37.5637L23.8936 37.4222L23.8936 37.4222L23.7522 37.5637ZM15.5117 25.4622L15.695 25.3823L15.6942 25.3806L15.5117 25.4622ZM15.5203 24.7664L15.7007 24.8525L15.7007 24.8525L15.5203 24.7664ZM15.7392 24.4853L15.8669 24.6393L15.8669 24.6393L15.7392 24.4853ZM16.0559 24.3221L16.1072 24.5154L16.1083 24.5151L16.0559 24.3221ZM22.0678 22.6895L22.1202 22.8825L22.3129 22.8302L22.2609 22.6374L22.0678 22.6895ZM18.8027 10.5881L18.9958 10.536L18.9559 10.3881H18.8027V10.5881ZM8.49207 10.5881L8.49207 10.388L8.48921 10.3881L8.49207 10.5881ZM37.081 23.0062L48.802 23.0072L48.802 22.6072L37.081 22.6062L37.081 23.0062ZM35.9204 22.0221C36.0236 22.5724 36.4876 23.0062 37.081 23.0062V22.6062C36.6964 22.6062 36.3844 22.3261 36.3136 21.9484L35.9204 22.0221ZM35.8 21.5392C35.8 21.7427 35.8602 21.9222 35.9389 22.0763L36.2951 21.8942C36.2358 21.7783 36.2 21.6618 36.2 21.5392H35.8ZM35.8 10.2253V21.5392H36.2V10.2253H35.8ZM37 9.02525C36.3375 9.02525 35.8 9.56279 35.8 10.2253H36.2C36.2 9.78371 36.5585 9.42525 37 9.42525V9.02525ZM38.2 10.2253C38.2 9.56279 37.6625 9.02525 37 9.02525V9.42525C37.4415 9.42525 37.8 9.78371 37.8 10.2253H38.2ZM38.2 19.8792V10.2253H37.8V19.8792H38.2ZM56.4456 1.15182L37.8586 19.7378L38.1414 20.0207L56.7284 1.43468L56.4456 1.15182ZM58.1424 1.15183C57.6733 0.682724 56.9147 0.682724 56.4456 1.15183L56.7284 1.43467C57.0413 1.12178 57.5467 1.12178 57.8596 1.43467L58.1424 1.15183ZM58.1424 2.84867C58.6115 2.37957 58.6115 1.62093 58.1424 1.15183L57.8596 1.43467C58.1725 1.74757 58.1725 2.25293 57.8596 2.56583L58.1424 2.84867ZM40.0434 20.9477L58.1424 2.84867L57.8596 2.56583L39.7606 20.6648L40.0434 20.9477ZM48.802 20.6072L39.902 20.6062L39.902 21.0062L48.802 21.0072L48.802 20.6072ZM50.002 21.8072C50.002 21.1438 49.4655 20.6072 48.802 20.6072V21.0072C49.2445 21.0072 49.602 21.3647 49.602 21.8072H50.002ZM48.802 23.0072C49.4645 23.0072 50.002 22.4697 50.002 21.8072H49.602C49.602 22.2488 49.2435 22.6072 48.802 22.6072V23.0072ZM1.73274 8.7305C1.47683 8.75462 1.23921 8.87362 1.06661 9.06408L1.363 9.33269C1.46853 9.21624 1.61382 9.14349 1.77027 9.12874L1.73274 8.7305ZM1.83862 8.72984C1.80647 8.72833 1.77428 8.72833 1.74213 8.72984L1.76088 9.1294C1.78053 9.12848 1.80022 9.12848 1.81987 9.1294L1.83862 8.72984ZM8.18855 8.72962H1.82925V9.12962H8.18855V8.72962ZM8.21664 8.72964C8.20626 8.7295 8.19595 8.7295 8.18569 8.72964L8.1914 9.1296C8.19785 9.12951 8.20438 9.12951 8.21098 9.1296L8.21664 8.72964ZM8.46315 8.72962H8.21381V9.12962H8.46315V8.72962ZM8.49127 8.72964C8.48101 8.7295 8.47069 8.7295 8.46032 8.72964L8.46598 9.1296C8.47258 9.12951 8.47911 9.12951 8.48556 9.1296L8.49127 8.72964ZM19.4506 8.72962H8.48841V9.12962H19.4506V8.72962ZM19.8756 8.82322C19.7425 8.76221 19.5979 8.7303 19.4515 8.72962L19.4496 9.12962C19.5392 9.13003 19.6276 9.14954 19.709 9.18685L19.8756 8.82322ZM20.2234 9.08337C20.1273 8.97286 20.0087 8.88421 19.8756 8.82322L19.709 9.18685C19.7904 9.22416 19.8629 9.27837 19.9216 9.34588L20.2234 9.08337ZM20.4471 9.49988C20.4057 9.34487 20.3286 9.20167 20.222 9.08174L19.923 9.34751C19.9882 9.42082 20.0353 9.50838 20.0607 9.60316L20.4471 9.49988ZM24.0492 23.0267L20.4471 9.50005L20.0606 9.60298L23.6626 23.1297L24.0492 23.0267ZM23.9512 23.7981C24.0835 23.5636 24.1186 23.2866 24.0491 23.0265L23.6627 23.1298C23.7052 23.2889 23.6837 23.4582 23.6028 23.6016L23.9512 23.7981ZM23.3415 24.2809C23.6 24.2059 23.8189 24.0326 23.9512 23.7981L23.6028 23.6016C23.522 23.7449 23.3882 23.8509 23.2301 23.8967L23.3415 24.2809ZM17.559 25.8367L23.3377 24.2819L23.2338 23.8957L17.4551 25.4505L17.559 25.8367ZM25.0857 36.2562C21.9028 33.0741 19.4902 29.4189 17.6883 25.559L17.3258 25.7282C19.1448 29.6245 21.5828 33.3197 24.8029 36.5391L25.0857 36.2562ZM35.7829 43.6534C31.9155 41.8518 28.2742 39.444 25.0857 36.2562L24.8029 36.5391C28.0284 39.7639 31.7097 42.1973 35.614 44.016L35.7829 43.6534ZM37.0601 38.0041L35.5053 43.7827L35.8916 43.8866L37.4464 38.1081L37.0601 38.0041ZM37.2338 37.6441C37.1525 37.7522 37.0933 37.8752 37.0596 38.0062L37.4469 38.106C37.4676 38.0259 37.5038 37.9507 37.5535 37.8846L37.2338 37.6441ZM37.5334 37.3764C37.417 37.4451 37.3152 37.536 37.2338 37.6441L37.5535 37.8846C37.6032 37.8185 37.6654 37.7629 37.7367 37.7209L37.5334 37.3764ZM37.9127 37.2437C37.7788 37.2626 37.6499 37.3077 37.5334 37.3764L37.7367 37.7209C37.8079 37.6789 37.8867 37.6513 37.9686 37.6398L37.9127 37.2437ZM38.3139 37.2664C38.183 37.2325 38.0467 37.2248 37.9127 37.2437L37.9686 37.6398C38.0505 37.6283 38.1338 37.633 38.2138 37.6537L38.3139 37.2664ZM51.8427 40.8947L38.3157 37.2668L38.2121 37.6532L51.739 41.2811L51.8427 40.8947ZM52.3974 41.2608C52.2576 41.0803 52.0619 40.9514 51.8409 40.8943L51.7408 41.2816C51.8759 41.3165 51.9956 41.3953 52.0811 41.5056L52.3974 41.2608ZM52.6128 41.8913C52.6129 41.663 52.5371 41.4412 52.3974 41.2608L52.0811 41.5056C52.1665 41.616 52.2128 41.7516 52.2128 41.8911L52.6128 41.8913ZM52.6128 59.5122V41.8912H52.2128V59.5122H52.6128ZM52.3113 60.2399C52.5043 60.0469 52.6128 59.7851 52.6128 59.5122L52.2128 59.5121C52.2128 59.679 52.1465 59.839 52.0285 59.9571L52.3113 60.2399ZM51.5836 60.5414C51.8565 60.5414 52.1183 60.4329 52.3113 60.2399L52.0285 59.9571C51.9104 60.0751 51.7504 60.1414 51.5835 60.1414L51.5836 60.5414ZM15.6812 45.6346C25.5888 55.5395 38.5936 60.5336 51.5834 60.5414L51.5837 60.1414C38.696 60.1337 25.794 55.1791 15.964 45.3517L15.6812 45.6346ZM0.800008 9.75896C0.808133 22.7455 5.7734 35.7292 15.6812 45.6346L15.964 45.3517C6.13411 35.5242 1.20807 22.6434 1.20001 9.75871L0.800008 9.75896ZM1.06661 9.06408C0.894004 9.25453 0.7989 9.50266 0.80001 9.7597L1.20001 9.75798C1.19933 9.60083 1.25747 9.44914 1.363 9.33269L1.06661 9.06408ZM8.21381 10.7881H8.46315V10.3881H8.21381V10.7881ZM8.18204 10.788C8.19349 10.7882 8.20502 10.7882 8.21663 10.788L8.21099 10.3881C8.20313 10.3882 8.19539 10.3882 8.18775 10.3881L8.18204 10.788ZM2.71031 10.7881H8.18489V10.3881H2.71031V10.7881ZM17.1561 44.1856C7.85287 34.8847 3.12378 22.7696 2.91028 10.5846L2.51034 10.5916C2.72558 22.8756 7.49348 35.0911 16.8733 44.4685L17.1561 44.1856ZM50.7578 58.4312C38.5696 58.218 26.4592 53.4863 17.1561 44.1856L16.8733 44.4685C26.2529 53.8456 38.4636 58.6162 50.7508 58.8311L50.7578 58.4312ZM50.5543 42.539V58.6312H50.9543V42.539H50.5543ZM38.6005 39.467L50.7022 42.7321L50.8064 42.3459L38.7047 39.0808L38.6005 39.467ZM37.2131 45.3383L38.8456 39.3263L38.4596 39.2215L36.827 45.2334L37.2131 45.3383ZM37.0107 45.7302C37.1059 45.6154 37.1751 45.4813 37.2133 45.3372L36.8267 45.2345C36.8033 45.3226 36.7611 45.4046 36.7028 45.4748L37.0107 45.7302ZM36.6618 46.0019C36.7965 45.9377 36.9155 45.8449 37.0107 45.7302L36.7028 45.4748C36.6446 45.545 36.5718 45.6017 36.4896 45.6409L36.6618 46.0019ZM36.2312 46.1022C36.3803 46.1004 36.5272 46.0662 36.6618 46.0019L36.4896 45.6409C36.4073 45.6802 36.3175 45.7011 36.2263 45.7022L36.2312 46.1022ZM35.7982 46.0126C35.9344 46.0735 36.0821 46.104 36.2312 46.1022L36.2263 45.7022C36.135 45.7034 36.0447 45.6847 35.9615 45.6475L35.7982 46.0126ZM23.6108 37.7051C27.2219 41.3154 31.3863 44.0895 35.7999 46.0134L35.9598 45.6467C31.5907 43.7422 27.4684 40.9962 23.8936 37.4222L23.6108 37.7051ZM15.3284 25.5422C17.2536 29.9554 19.9995 34.0947 23.6108 37.7051L23.8936 37.4222C20.3191 33.8486 17.6011 29.7515 15.695 25.3823L15.3284 25.5422ZM15.2395 25.1109C15.2376 25.26 15.2682 25.4078 15.3291 25.5439L15.6942 25.3806C15.657 25.2973 15.6383 25.207 15.6394 25.1158L15.2395 25.1109ZM15.3398 24.6802C15.2755 24.8148 15.2413 24.9618 15.2395 25.1109L15.6394 25.1158C15.6405 25.0247 15.6615 24.9348 15.7007 24.8525L15.3398 24.6802ZM15.6115 24.3314C15.4967 24.4266 15.404 24.5457 15.3398 24.6802L15.7007 24.8525C15.74 24.7703 15.7967 24.6975 15.8669 24.6393L15.6115 24.3314ZM16.0045 24.1288C15.8604 24.167 15.7263 24.2362 15.6115 24.3314L15.8669 24.6393C15.9371 24.581 16.0191 24.5388 16.1072 24.5154L16.0045 24.1288ZM22.0154 22.4965L16.0035 24.129L16.1083 24.5151L22.1202 22.8825L22.0154 22.4965ZM18.6096 10.6402L21.8747 22.7416L22.2609 22.6374L18.9958 10.536L18.6096 10.6402ZM8.49207 10.7881H18.8027V10.3881H8.49207V10.7881ZM8.46033 10.788C8.47194 10.7882 8.48347 10.7882 8.49492 10.788L8.48921 10.3881C8.48157 10.3882 8.47383 10.3882 8.46597 10.3881L8.46033 10.788Z" fill="#2EBBE1" mask="url(#path-1-outside-1)"/>
</svg>
