<svg width="62" height="60" fill="none" xmlns="http://www.w3.org/2000/svg"><mask id="a" maskUnits="userSpaceOnUse" x=".317" y=".19" width="61" height="60" fill="#000"><path fill="#fff" d="M.317.19h61v60h-61z"/><path d="M32.515 1.194a.728.728 0 10.158 1.448c14.868-.182 26.74 11.69 26.56 26.559a.724.724 0 101.447 0C60.871 13.55 48.3 1.003 32.65 1.194a.724.724 0 00-.135 0zm-.114 9.41a.728.728 0 10.159 1.449c9.67-.118 17.38 7.59 17.261 17.26a.724.724 0 101.448 0c.128-10.452-8.279-18.836-18.732-18.708a.715.715 0 00-.136 0zm-30.428 3.62a.724.724 0 00-.656.724c.007 11.293 4.325 22.583 12.94 31.197a44.104 44.104 0 0031.22 12.963.724.724 0 00.725-.724V43a.724.724 0 00-.543-.701l-11.81-3.167a.724.724 0 00-.882.52l-1.357 5.045c-3.393-1.58-6.59-3.694-9.389-6.493-2.795-2.794-4.912-6.002-6.493-9.388l5.045-1.357a.724.724 0 00.498-.883l-3.145-11.809a.724.724 0 00-.158-.294.723.723 0 00-.543-.249h-9.81c-.88-.012-.942 1.461 0 1.448h9.244l2.85 10.565-5.248 1.425a.724.724 0 00-.475.996 34.264 34.264 0 007.194 10.564 34.434 34.434 0 0010.588 7.217.725.725 0 00.995-.475l1.426-5.249 10.565 2.85v14.05c-10.684-.187-21.3-4.335-29.456-12.488-8.155-8.153-12.3-18.774-12.487-29.455h5.022c.942.013.88-1.46 0-1.448H2.04a.768.768 0 00-.068 0zm30.315 4.344a.728.728 0 10.159 1.448c5.275-.065 9.475 4.113 9.41 9.388a.726.726 0 00.714.737.726.726 0 00.735-.714 10.692 10.692 0 00-10.86-10.86.722.722 0 00-.158 0z"/></mask><path d="M32.515 1.194a.728.728 0 10.158 1.448c14.868-.182 26.74 11.69 26.56 26.559a.724.724 0 101.447 0C60.871 13.55 48.3 1.003 32.65 1.194a.724.724 0 00-.135 0zm-.114 9.41a.728.728 0 10.159 1.449c9.67-.118 17.38 7.59 17.261 17.26a.724.724 0 101.448 0c.128-10.452-8.279-18.836-18.732-18.708a.715.715 0 00-.136 0zm-30.428 3.62a.724.724 0 00-.656.724c.007 11.293 4.325 22.583 12.94 31.197a44.104 44.104 0 0031.22 12.963.724.724 0 00.725-.724V43a.724.724 0 00-.543-.701l-11.81-3.167a.724.724 0 00-.882.52l-1.357 5.045c-3.393-1.58-6.59-3.694-9.389-6.493-2.795-2.794-4.912-6.002-6.493-9.388l5.045-1.357a.724.724 0 00.498-.883l-3.145-11.809a.724.724 0 00-.158-.294.723.723 0 00-.543-.249h-9.81c-.88-.012-.942 1.461 0 1.448h9.244l2.85 10.565-5.248 1.425a.724.724 0 00-.475.996 34.264 34.264 0 007.194 10.564 34.434 34.434 0 0010.588 7.217.725.725 0 00.995-.475l1.426-5.249 10.565 2.85v14.05c-10.684-.187-21.3-4.335-29.456-12.488-8.155-8.153-12.3-18.774-12.487-29.455h5.022c.942.013.88-1.46 0-1.448H2.04a.768.768 0 00-.068 0zm30.315 4.344a.728.728 0 10.159 1.448c5.275-.065 9.475 4.113 9.41 9.388a.726.726 0 00.714.737.726.726 0 00.735-.714 10.692 10.692 0 00-10.86-10.86.722.722 0 00-.158 0z" fill="#fff"/><path d="M7.615 15.922h.218v-.5h-.218v.5zm.218-1.448h.394v-.5H7.221v.5h.395v-.5h-.395v.5h1.006v-.5h-.394v.5zm24.682-13.28l-.047-.498h-.008l.055.498zm.158 1.448l-.006-.5h-.024l-.024.002.054.498zM59.233 29.2l.5.007v-.001l-.5-.006zm1.447 0l-.5-.007v.014l.5-.007zM32.65 1.194l-.047.497.027.003h.026l-.006-.5zm-.248 9.41l-.047-.497h-.008l.054.498zm.158 1.449l-.006-.5h-.025l-.024.002.055.498zm17.261 17.26l.5.008v-.001l-.5-.006zm1.448 0l-.5-.005v.013l.5-.007zM32.537 10.606l-.047.497.027.003h.026l-.006-.5zm-30.564 3.62l-.023-.5h-.012l-.011.002.046.497zm-.656.723h.5v-.002l-.5.002zm12.94 31.197l-.353.353.354-.353zm31.22 12.963v.5-.5zm.725-.724h.5-.5zm0-15.384h-.5.5zm-.543-.701l-.13.483.005.001.125-.484zm-11.81-3.167l.13-.483-.005-.001-.125.484zm-.549.077l-.254-.43.254.43zm-.333.443l.483.13.001-.005-.484-.125zm-1.357 5.045l-.212.453.54.252.155-.575-.483-.13zm-9.389-6.493l-.353.354.353-.354zm-6.493-9.388l-.13-.483-.575.155.252.54.453-.212zm5.045-1.357l.13.483.01-.003-.14-.48zm.498-.883l-.483.129.483-.129zm-3.145-11.809l.483-.128-.483.128zm-.158-.294l-.377.328.003.004.374-.332zm-.543-.249l.002-.5h-.002v.5zm-9.81 0l-.007.5h.007v-.5zm0 1.448v-.5h-.007l.007.5zm9.244 0l.483-.13-.1-.37h-.383v.5zm2.85 10.565l.132.483.482-.131-.13-.482-.483.13zm-5.248 1.425l.129.483h.002l-.13-.483zm-.475.996l.459-.2-.002-.005-.457.205zm7.194 10.564l.354-.353-.354.353zm10.588 7.217l.204-.456-.004-.002-.2.458zm.995-.475l-.482-.131v.003l.483.128zm1.426-5.249l.13-.482-.482-.13-.13.481.482.131zm10.565 2.85h.5v-.382l-.37-.1-.13.483zm0 14.05l-.01.5.51.008v-.508h-.5zM15.298 45.127l-.353.353.353-.353zM2.811 15.672v-.5H2.3l.01.509.5-.009zm5.022 0l.007-.5h-.007v.5zm0-1.448v.5h.007l-.007-.5zm-5.792 0l-.023.5h.023v-.5zm30.247 4.344l.055.497-.055-.497zm.159 1.448l-.006-.5h-.025l-.024.003.055.497zm9.41 9.388l.5.009v-.003l-.5-.006zm1.449.023l.5.006-.5-.006zm-10.86-10.86l-.054.498.03.003h.03l-.005-.5zM32.46.698c-.324.035-.62.198-.824.452l.78.626a.228.228 0 01.153-.084L32.46.697zm-.824.452a1.228 1.228 0 00-.263.902l.994-.109a.228.228 0 01.049-.167l-.78-.626zm-.263.902c.035.324.198.62.452.824l.626-.78a.228.228 0 01-.084-.153l-.994.11zm.452.824c.254.204.579.299.902.264l-.108-.995a.228.228 0 01-.168-.048l-.626.78zm.854.266c14.587-.177 26.231 11.466 26.053 26.053l1 .013c.185-15.15-11.916-27.25-27.065-27.065l.012 1zm26.053 26.052c-.002.163.028.324.089.474l.928-.373a.224.224 0 01-.017-.086l-1-.014zm.089.474c.06.15.15.288.264.403l.712-.702a.224.224 0 01-.048-.074l-.928.373zm.264.403c.114.116.25.207.399.27l.386-.923a.222.222 0 01-.073-.049l-.712.702zm.399.27c.15.063.31.095.472.095v-1a.224.224 0 01-.086-.018l-.386.923zm.472.095c.163 0 .323-.032.473-.095l-.386-.923a.223.223 0 01-.087.018v1zm.473-.095a1.22 1.22 0 00.399-.27l-.712-.702a.223.223 0 01-.073.05l.386.922zm.399-.27c.114-.115.204-.252.264-.403l-.928-.373a.222.222 0 01-.048.074l.712.702zm.264-.403c.06-.15.09-.311.088-.474l-1 .015c0 .03-.005.059-.016.086l.928.373zm.088-.46C61.375 13.275 48.575.5 32.644.694l.012 1c15.37-.188 27.712 12.132 27.524 27.5l1 .013zM32.697.696a1.224 1.224 0 00-.23 0l.095.995a.223.223 0 01.041 0l.094-.995zm-.35 9.412a1.23 1.23 0 00-.457.144l.48.877a.23.23 0 01.086-.027l-.109-.994zm-.457.144a1.23 1.23 0 00-.367.308l.78.626a.228.228 0 01.068-.057l-.481-.877zm-.367.308c-.101.125-.176.27-.221.425l.96.28a.229.229 0 01.04-.08l-.78-.625zm-.221.425a1.23 1.23 0 00-.042.477l.994-.109c-.003-.03 0-.06.008-.088l-.96-.28zm-.042.477c.017.16.066.316.144.457l.877-.48a.227.227 0 01-.027-.086l-.994.11zm.144.457c.077.142.182.266.308.367l.626-.78a.228.228 0 01-.057-.068l-.877.481zm.308.367c.125.101.27.177.425.222l.28-.96a.227.227 0 01-.08-.041l-.625.78zm.425.222c.154.045.317.06.477.042l-.108-.995a.23.23 0 01-.09-.007l-.28.96zm.429.045c9.39-.115 16.87 7.365 16.755 16.755l1 .012c.122-9.952-7.815-17.889-17.767-17.767l.012 1zM49.32 29.306c-.002.163.028.324.088.474l.928-.373a.226.226 0 01-.016-.086l-1-.015zm.088.474c.06.15.15.288.265.403l.712-.702a.225.225 0 01-.049-.074l-.928.373zm.265.403c.114.116.25.207.399.27l.386-.922a.224.224 0 01-.073-.05l-.712.702zm.399.27c.15.063.31.095.472.095v-1a.224.224 0 01-.086-.017l-.386.922zm.472.095c.163 0 .323-.032.473-.095l-.386-.922a.223.223 0 01-.087.017v1zm.473-.095a1.22 1.22 0 00.399-.27l-.712-.702a.225.225 0 01-.073.05l.386.922zm.399-.27a1.22 1.22 0 00.264-.403l-.928-.373a.223.223 0 01-.048.074l.712.702zm.264-.403c.06-.15.09-.311.088-.474l-1 .015c0 .03-.005.059-.016.086l.928.373zm.088-.46c.131-10.735-8.505-19.346-19.238-19.215l.012 1c10.173-.124 18.35 8.031 18.226 18.203l1 .012zM32.584 10.107a1.222 1.222 0 00-.23 0l.094.995a.226.226 0 01.042 0l.094-.995zm-30.657 3.62c-.305.028-.587.17-.793.396l.741.672a.225.225 0 01.145-.073l-.093-.995zm-.793.396a1.224 1.224 0 00-.317.827l1-.004c0-.056.02-.11.058-.151l-.74-.672zm-.317.826c.008 11.42 4.374 22.839 13.087 31.55l.707-.708C6.093 37.275 1.824 26.114 1.817 14.948h-1zm13.087 31.55a44.604 44.604 0 0031.573 13.109v-1A43.604 43.604 0 0114.612 45.79l-.707.708zm31.574 13.109c.324 0 .636-.13.865-.359l-.707-.707a.224.224 0 01-.158.066v1zm.865-.359c.23-.23.358-.54.358-.865h-1a.223.223 0 01-.065.158l.707.707zm.358-.865V43h-1v15.384h1zm0-15.383c0-.272-.09-.536-.256-.75l-.79.612c.03.04.047.087.047.137h1zm-.256-.75a1.224 1.224 0 00-.661-.436l-.25.968a.22.22 0 01.12.08l.791-.612zm-.657-.435l-11.81-3.167-.258.966 11.81 3.167.258-.966zm-11.813-3.168a1.224 1.224 0 00-.478-.027l.14.99a.223.223 0 01.087.005l.25-.968zm-.478-.027a1.22 1.22 0 00-.45.157l.507.862a.223.223 0 01.083-.029l-.14-.99zm-.45.157c-.14.082-.26.19-.357.319l.8.601a.221.221 0 01.064-.058l-.508-.861zm-.357.319a1.224 1.224 0 00-.207.43l.968.25a.223.223 0 01.038-.079l-.799-.601zm-.206.425l-1.357 5.045.966.26 1.357-5.045-.966-.26zm-.663 4.722c-3.347-1.56-6.493-3.64-9.246-6.393l-.707.707c2.846 2.845 6.092 4.99 9.53 6.592l.423-.906zm-9.246-6.393c-2.749-2.748-4.834-5.906-6.394-9.247l-.906.423c1.602 3.431 3.751 6.69 6.593 9.53l.707-.706zm-6.717-8.552l5.045-1.358-.26-.965-5.045 1.357.26.966zm5.055-1.36c.307-.09.567-.296.725-.574l-.871-.492a.224.224 0 01-.133.105l.279.96zm.725-.574c.157-.28.199-.609.116-.918l-.966.258a.224.224 0 01-.021.168l.87.492zm.116-.917l-3.145-11.81-.966.258 3.145 11.809.966-.257zm-3.145-11.81a1.225 1.225 0 00-.267-.497l-.748.664c.023.026.04.058.05.091l.965-.258zm-.264-.493a1.224 1.224 0 00-.413-.31l-.417.91c.03.013.055.032.076.056l.754-.656zm-.413-.31a1.225 1.225 0 00-.505-.11l-.004 1c.032 0 .063.006.092.02l.417-.91zm-.507-.11h-9.81v1h9.81v-1zm-9.81 2.447h9.244v-1H7.615v1zm8.762-.37l2.85 10.565.966-.26-2.85-10.565-.966.26zm3.202 9.952L14.33 27.18l.262.965 5.249-1.425-.262-.966zm-5.246 1.425c-.171.045-.33.128-.467.24l.638.77a.224.224 0 01.086-.044l-.257-.966zm-.467.24a1.223 1.223 0 00-.323.416l.902.43a.225.225 0 01.06-.076l-.64-.77zm-.323.416c-.077.16-.117.334-.12.512l1 .012c0-.032.008-.064.022-.094l-.902-.43zm-.12.512a1.22 1.22 0 00.107.515l.913-.409a.225.225 0 01-.02-.094l-1-.012zm.105.51a34.765 34.765 0 007.299 10.719l.707-.707a33.765 33.765 0 01-7.09-10.411l-.916.4zm7.299 10.719a34.933 34.933 0 0010.741 7.321l.4-.916a33.93 33.93 0 01-10.434-7.112l-.707.707zm10.737 7.32c.162.072.338.108.515.106l-.013-1a.224.224 0 01-.094-.02l-.408.913zm.515.106c.177-.002.352-.043.512-.12l-.43-.902a.223.223 0 01-.095.022l.013 1zm.512-.12a1.23 1.23 0 00.415-.322l-.77-.639a.224.224 0 01-.076.06l.43.902zm.415-.322a1.22 1.22 0 00.24-.468l-.966-.256a.224.224 0 01-.044.085l.77.639zm.24-.465l1.425-5.249-.965-.262-1.425 5.249.965.262zm.813-4.897l10.564 2.85.26-.965-10.564-2.85-.26.965zm10.195 2.368v14.049h1v-14.05h-1zm.508 13.549c-10.56-.185-21.05-4.284-29.11-12.342l-.707.707c8.25 8.249 18.992 12.446 29.8 12.635l.017-1zm-29.11-12.342C7.592 36.716 3.495 26.221 3.31 15.663l-1 .018c.19 10.805 4.384 21.55 12.635 29.8l.707-.708zm-12.841-28.6h5.022v-1H2.81v1zm5.022-2.449H2.042v1h5.792v-1zm-5.768 0a1.22 1.22 0 00-.115 0l.047 1h.02l.048-1zm30.169 4.347a1.21 1.21 0 00-.457.144l.48.877a.226.226 0 01.086-.027l-.109-.994zm-.457.144a1.226 1.226 0 00-.367.308l.78.626a.226.226 0 01.068-.057l-.481-.877zm-.367.308c-.101.126-.176.27-.222.425l.96.28a.228.228 0 01.042-.08l-.78-.625zm-.222.425a1.22 1.22 0 00-.041.477l.994-.108a.23.23 0 01.007-.09l-.96-.28zm-.041.477c.017.16.066.316.144.457l.876-.48a.23.23 0 01-.026-.085l-.994.108zm.144.457c.077.142.182.267.308.368l.626-.78a.229.229 0 01-.058-.068l-.876.48zm.308.368c.125.1.27.176.425.22l.28-.96a.23.23 0 01-.08-.04l-.625.78zm.425.22c.154.046.317.06.477.043l-.109-.994a.23.23 0 01-.088-.008l-.28.96zm.429.046c4.996-.061 8.966 3.89 8.905 8.882l1 .012c.068-5.558-4.363-9.962-9.917-9.894l.012 1zm8.905 8.88c-.003.16.026.32.085.47l.93-.367a.224.224 0 01-.015-.086l-1-.018zm.085.47c.06.15.147.286.26.402l.718-.695a.224.224 0 01-.048-.074l-.93.367zm.26.402c.111.116.245.208.392.272l.398-.918a.224.224 0 01-.072-.05l-.719.696zm.392.272c.148.064.307.098.468.1l.015-1a.222.222 0 01-.085-.018l-.398.918zm.468.1c.16.003.32-.026.47-.085l-.369-.93a.225.225 0 01-.086.016l-.015 1zm.47-.085c.15-.06.286-.148.402-.26l-.697-.718a.223.223 0 01-.074.048l.37.93zm.402-.26c.115-.112.207-.246.271-.394l-.918-.395a.225.225 0 01-.05.072l.697.717zm.271-.394c.064-.148.098-.307.1-.468l-1-.013c0 .03-.007.058-.018.085l.918.396zm.1-.468A11.192 11.192 0 0032.44 18.068l.012 1A10.192 10.192 0 0142.806 29.42l1 .013zM32.5 18.07c-.09-.01-.18-.01-.267 0l.109.994a.223.223 0 01.049 0l.11-.994zM7.622 13.724a1.125 1.125 0 00-.893.4 1.31 1.31 0 00-.297.814c-.006.28.074.586.277.831.214.258.534.408.913.403l-.014-1c-.091.002-.117-.027-.13-.041a.267.267 0 01-.046-.172.313.313 0 01.062-.19c.021-.025.05-.046.114-.045l.014-1zm.204 2.448c.38.005.699-.145.913-.403a1.26 1.26 0 00.277-.831 1.31 1.31 0 00-.297-.813 1.125 1.125 0 00-.893-.4l.014 1c.065-.002.093.019.114.045.031.036.06.104.062.19a.267.267 0 01-.047.17c-.012.015-.038.043-.13.042l-.013 1z" fill="#fff" mask="url(#a)"/></svg>