<svg width="81" height="81" fill="none" xmlns="http://www.w3.org/2000/svg"><path d="M69.857 45.428a1.51 1.51 0 00.429-1.07l-.054-18.483c.004-.4-.15-.785-.428-1.072L49.82 4.822a6.818 6.818 0 00-9.642 0L4.82 40.178a6.819 6.819 0 000 9.643l25.5 25.5a6.818 6.818 0 009.643 0L69.857 45.43zm-32.036 27.75a3.788 3.788 0 01-5.357 0l-25.5-25.5a3.788 3.788 0 010-5.357L42.321 6.964a3.788 3.788 0 015.358 0l19.553 19.554v17.25l-29.41 29.41z" fill="#2EBBE1"/><path d="M26.465 29.571L13.179 42.857a1.515 1.515 0 000 2.143l21.428 21.428a1.516 1.516 0 002.143 0l13.286-13.285a1.516 1.516 0 000-2.143L28.607 29.57a1.515 1.515 0 00-2.142 0zm1.07 3.214l19.287 19.286-11.143 11.143-19.286-19.286 11.143-11.142zM40.34 17.84a1.515 1.515 0 002.142 0l2.947-2.947a1.515 1.515 0 00-2.143-2.143l-2.947 2.947a1.515 1.515 0 000 2.142zm5.356 5.356a1.515 1.515 0 002.143 0l2.947-2.946a1.515 1.515 0 10-2.143-2.143l-2.947 2.947a1.515 1.515 0 000 2.142zm5.358 5.358a1.515 1.515 0 002.142 0l2.947-2.947A1.516 1.516 0 0054 23.464l-2.946 2.947a1.515 1.515 0 000 2.143z" fill="#2EBBE1"/></svg>