<svg width="39" height="69" fill="none" xmlns="http://www.w3.org/2000/svg"><path d="M33.492 0H5.321A5.326 5.326 0 000 5.32v58.36A5.326 5.326 0 005.32 69h28.172a5.326 5.326 0 005.32-5.32V5.32A5.326 5.326 0 0033.492 0zm-22.71 2.156h17.25v1.617a1.045 1.045 0 01-1.079 1.079H11.86a1.046 1.046 0 01-1.078-1.079V2.156zM36.655 63.68a3.175 3.175 0 01-3.164 3.165H5.321a3.175 3.175 0 01-3.165-3.164V5.32a3.175 3.175 0 013.165-3.164h3.304v1.617a3.202 3.202 0 003.234 3.235h15.094a3.202 3.202 0 003.235-3.235V2.156h3.304a3.175 3.175 0 013.164 3.165v58.358z" fill="#2EBBE1"/><path d="M31.266 28.031H26.92l.539-4.722a1.085 1.085 0 10-2.156-.259l-.556 4.981h-8.625l.588-4.722a1.085 1.085 0 10-2.156-.259l-.588 4.981H8.625a1.078 1.078 0 000 2.156h5.089l-1.03 8.625H7.547a1.078 1.078 0 000 2.157h4.884l-.572 4.722a1.076 1.076 0 00.95 1.207h.129a1.078 1.078 0 001.078-.948l.587-4.981h8.625l-.539 4.722a1.078 1.078 0 00.9 1.207h.13a1.078 1.078 0 001.078-.948l.587-4.981h4.803a1.078 1.078 0 000-2.157h-4.55l1.03-8.625h4.599a1.078 1.078 0 100-2.156zm-7.8 10.781H14.84l1.03-8.625h8.625l-1.03 8.625z" fill="#2EBBE1"/></svg>