<svg width="70" height="68" fill="none" xmlns="http://www.w3.org/2000/svg"><mask id="a" maskUnits="userSpaceOnUse" x="0" y="0" width="70" height="68" fill="#000"><path fill="#fff" d="M0 0h70v68H0z"/><path d="M36.735 1.004a.834.834 0 00.181 1.658c17.031-.208 30.63 13.392 30.423 30.422a.828.828 0 101.659 0C69.216 15.158 54.818.785 36.89 1.004a.83.83 0 00-.155 0zm-.13 10.78a.833.833 0 00.182 1.658c11.078-.135 19.907 8.694 19.772 19.772a.828.828 0 001.42.594.83.83 0 00.238-.594c.147-11.974-9.482-21.576-21.456-21.43a.841.841 0 00-.156 0zM1.752 15.93a.83.83 0 00-.752.829c.008 12.936 4.954 25.868 14.823 35.734a50.52 50.52 0 0035.76 14.848.83.83 0 00.83-.829v-17.62a.83.83 0 00-.622-.804L38.264 44.46a.829.829 0 00-1.01.596l-1.556 5.779c-3.885-1.81-7.547-4.231-10.754-7.437-3.201-3.201-5.627-6.876-7.437-10.754l5.779-1.555a.83.83 0 00.57-1.01l-3.602-13.527a.83.83 0 00-.181-.337.829.829 0 00-.622-.285H8.214c-1.008-.015-1.08 1.673 0 1.658h10.589l3.265 12.102-6.012 1.632a.829.829 0 00-.544 1.14 39.248 39.248 0 008.24 12.102A39.44 39.44 0 0035.88 52.83a.83.83 0 001.14-.544l1.633-6.012 12.101 3.265v16.092c-12.237-.214-24.398-4.965-33.74-14.304-9.34-9.34-14.09-21.504-14.304-33.739h5.753c1.08.015 1.008-1.673 0-1.658H1.83a.84.84 0 00-.077 0zm34.724 4.975a.834.834 0 10.181 1.659c6.043-.075 10.854 4.71 10.78 10.753a.83.83 0 101.659.026 12.247 12.247 0 00-12.439-12.438.826.826 0 00-.181 0z"/></mask><path d="M36.735 1.004a.834.834 0 00.181 1.658c17.031-.208 30.63 13.392 30.423 30.422a.828.828 0 101.659 0C69.216 15.158 54.818.785 36.89 1.004a.83.83 0 00-.155 0zm-.13 10.78a.833.833 0 00.182 1.658c11.078-.135 19.907 8.694 19.772 19.772a.828.828 0 001.42.594.83.83 0 00.238-.594c.147-11.974-9.482-21.576-21.456-21.43a.841.841 0 00-.156 0zM1.752 15.93a.83.83 0 00-.752.829c.008 12.936 4.954 25.868 14.823 35.734a50.52 50.52 0 0035.76 14.848.83.83 0 00.83-.829v-17.62a.83.83 0 00-.622-.804L38.264 44.46a.829.829 0 00-1.01.596l-1.556 5.779c-3.885-1.81-7.547-4.231-10.754-7.437-3.201-3.201-5.627-6.876-7.437-10.754l5.779-1.555a.83.83 0 00.57-1.01l-3.602-13.527a.83.83 0 00-.181-.337.829.829 0 00-.622-.285H8.214c-1.008-.015-1.08 1.673 0 1.658h10.589l3.265 12.102-6.012 1.632a.829.829 0 00-.544 1.14 39.248 39.248 0 008.24 12.102A39.44 39.44 0 0035.88 52.83a.83.83 0 001.14-.544l1.633-6.012 12.101 3.265v16.092c-12.237-.214-24.398-4.965-33.74-14.304-9.34-9.34-14.09-21.504-14.304-33.739h5.753c1.08.015 1.008-1.673 0-1.658H1.83a.84.84 0 00-.077 0zm34.724 4.975a.834.834 0 10.181 1.659c6.043-.075 10.854 4.71 10.78 10.753a.83.83 0 101.659.026 12.247 12.247 0 00-12.439-12.438.826.826 0 00-.181 0z" fill="#2EBBE1"/><path d="M8.214 17.838h.25v-.5h-.25v.5zm.25-1.658h.449v-.5h-1.15v.5h.452v-.5h-.451v.5h1.151v-.5h-.452v.5zm28.27-15.176l-.047-.498h-.007l.054.498zm.181 1.658l-.006-.5h-.024l-.024.003.054.497zM67.34 33.084l.5.007-.5-.007zm1.659 0l-.5-.006v.013l.5-.007zM36.89 1.004l-.046.497.026.003h.027l-.006-.5zm-.285 10.78l-.046-.498h-.008l.054.498zm.182 1.658l-.006-.5h-.024l-.024.003.054.497zm19.772 19.772l.5.007v-.001l-.5-.006zm1.658 0l-.5-.006v.013l.5-.007zm-21.456-21.43l-.047.497.026.003h.027l-.006-.5zM1.75 15.93l-.023-.5h-.012l-.011.002.047.498zm-.75.829h.5v-.002l-.5.002zm14.823 35.734l-.354.354.354-.354zm35.76 14.848v.5-.5zm.83-.829h.5-.5zm0-17.62l-.5-.001h.5zm-.622-.804l-.13.483.005.001.125-.484zM38.264 44.46l.13-.483-.005-.001-.125.484zm-1.01.596l.482.13.002-.005-.485-.125zm-1.556 5.779l-.21.453.539.251.154-.574-.483-.13zm-10.754-7.437l-.353.353.353-.353zm-7.437-10.754l-.13-.483-.575.154.252.54.453-.211zm5.779-1.555l.13.483.01-.003-.14-.48zm.57-1.01l-.483.128.483-.129zm-3.602-13.527l.483-.13-.483.13zm-.181-.337l-.378.328.004.004.373-.332zm-.622-.285l.002-.5h-.002v.5zm-11.237 0l-.007.5h.007v-.5zm0 1.658v-.5h-.007l.007.5zm10.589 0l.482-.13-.1-.37h-.382v.5zm3.265 12.102l.13.482.483-.13-.13-.483-.483.13zm-6.012 1.632l.128.483h.003l-.131-.483zm-.544 1.14l.458-.2-.002-.004-.456.204zm8.24 12.102l.354-.354-.354.354zM35.88 52.83l.204-.456-.004-.002-.2.458zm1.14-.544l-.483-.131v.003l.483.128zm1.633-6.012l.13-.483-.482-.13-.13.482.482.131zm12.101 3.265h.5v-.383l-.37-.1-.13.483zm0 16.092l-.008.5.508.009v-.509h-.5zm-33.74-14.304l-.353.354.354-.354zM2.71 17.588v-.5h-.509l.01.509.5-.009zm5.753 0l.007-.5h-.007v.5zm0-1.658v.5h.007l-.007-.5zm-6.634 0l-.023.5h.023v-.5zm34.647 4.975l.054.497-.054-.497zm.181 1.659l-.006-.5h-.024l-.024.002.054.498zm10.78 10.753l.5.01v-.003l-.5-.007zm1.659.026l.5.007-.5-.007zM36.657 20.905l-.054.497.03.003h.03l-.006-.5zM36.681.507a1.334 1.334 0 00-.896.49l.78.627a.334.334 0 01.224-.123l-.108-.994zm-.896.49a1.334 1.334 0 00-.286.98l.994-.108a.334.334 0 01.072-.245l-.78-.626zm-.286.98c.039.353.215.675.491.896l.627-.78a.334.334 0 01-.123-.224l-.995.109zm.491.896c.276.222.629.325.98.286l-.108-.994a.334.334 0 01-.245-.072l-.627.78zm.932.289c16.75-.204 30.121 13.166 29.917 29.916l1 .012C68.05 15.78 54.222 1.951 36.91 2.162l.013 1zM66.84 33.077c-.002.176.03.351.096.515l.928-.373a.331.331 0 01-.024-.128l-1-.014zm.096.515c.066.163.163.312.287.437l.712-.702a.33.33 0 01-.071-.108l-.928.373zm.287.437c.123.126.27.225.433.293l.386-.922a.33.33 0 01-.107-.073l-.712.702zm.433.293c.163.068.337.103.513.103v-1a.33.33 0 01-.127-.025l-.386.922zm.513.103c.176 0 .35-.035.513-.103l-.386-.922a.33.33 0 01-.127.025v1zm.513-.103a1.33 1.33 0 00.434-.293l-.712-.702a.331.331 0 01-.108.073l.386.922zm.434-.293a1.33 1.33 0 00.287-.437l-.928-.373a.33.33 0 01-.071.108l.712.702zm.287-.437a1.33 1.33 0 00.096-.515l-1 .014a.331.331 0 01-.024.128l.928.373zm.096-.502C69.72 14.882 55.092.282 36.884.504l.013 1c17.646-.215 31.816 13.93 31.6 31.574l1 .012zM36.938.506a1.33 1.33 0 00-.25 0l.094.995a.33.33 0 01.062 0l.093-.995zm-.387 10.78a1.332 1.332 0 00-.496.157l.48.877a.333.333 0 01.125-.04l-.109-.993zm-.496.157a1.33 1.33 0 00-.4.335l.78.626a.334.334 0 01.1-.084l-.48-.877zm-.4.335c-.109.136-.19.293-.24.461l.96.28a.334.334 0 01.06-.115l-.78-.627zm-.24.461a1.338 1.338 0 00-.045.519l.994-.109a.333.333 0 01.011-.13l-.96-.28zm-.045.519c.019.174.072.343.156.496l.877-.48a.334.334 0 01-.04-.125l-.993.109zm.156.496c.085.154.198.29.335.4l.626-.78a.334.334 0 01-.084-.1l-.877.48zm.335.4c.137.109.293.19.462.24l.28-.96a.334.334 0 01-.116-.06l-.626.78zm.462.24c.168.049.344.064.518.045l-.108-.994a.335.335 0 01-.13-.011l-.28.96zm.47.048c10.797-.132 19.398 8.47 19.266 19.266l1 .012c.139-11.358-8.92-20.416-20.278-20.278l.012 1zm19.266 19.265c-.002.176.03.35.096.514l.928-.373a.331.331 0 01-.024-.127l-1-.014zm.096.514c.065.164.163.312.287.438l.712-.702a.33.33 0 01-.071-.109l-.928.373zm.287.438c.123.125.27.225.433.293l.386-.923a.33.33 0 01-.107-.072l-.712.702zm.433.293c.163.068.337.103.513.103v-1a.329.329 0 01-.127-.026l-.386.923zm.513.103c.176 0 .35-.035.513-.103l-.386-.923a.329.329 0 01-.127.026v1zm.513-.103c.163-.068.31-.168.434-.293l-.712-.702a.33.33 0 01-.108.072l.386.923zm.434-.293a1.33 1.33 0 00.287-.438l-.928-.373a.33.33 0 01-.071.109l.712.702zm.287-.438a1.33 1.33 0 00.095-.514l-1 .014a.331.331 0 01-.023.127l.928.373zm.095-.501c.15-12.255-9.708-22.086-21.962-21.936l.012 1c11.694-.143 21.093 9.232 20.95 20.924l1 .012zm-21.91-21.934a1.33 1.33 0 00-.248 0l.093.995a.335.335 0 01.062 0l.094-.995zM1.706 15.432a1.33 1.33 0 00-.86.43l.74.672a.33.33 0 01.213-.107l-.093-.995zm-.86.43a1.33 1.33 0 00-.345.899l1-.004a.33.33 0 01.085-.223l-.74-.671zM.5 16.76c.008 13.063 5.003 26.124 14.97 36.088l.706-.707C6.405 42.37 1.508 29.567 1.5 16.759h-1zm14.97 36.088A51.02 51.02 0 0051.582 67.84v-1a50.02 50.02 0 01-35.405-14.7l-.707.707zM51.583 67.84c.352 0 .69-.14.94-.389l-.708-.707a.33.33 0 01-.233.096v1zm.94-.389a1.33 1.33 0 00.389-.94h-1a.33.33 0 01-.097.233l.707.707zm.389-.94v-17.62h-1v17.62h1zm0-17.62a1.33 1.33 0 00-.278-.815l-.791.612a.33.33 0 01.069.202h1zm-.278-.815a1.33 1.33 0 00-.72-.473l-.25.968a.33.33 0 01.179.117l.79-.612zm-.715-.472l-13.527-3.628-.259.966L51.66 48.57l.26-.966zM38.39 43.976a1.329 1.329 0 00-.518-.03l.14.99a.329.329 0 01.128.008l.25-.968zm-.518-.03a1.33 1.33 0 00-.49.172l.508.861a.329.329 0 01.121-.042l-.14-.99zm-.49.172c-.15.089-.282.206-.387.346l.8.601a.329.329 0 01.095-.086l-.508-.861zm-.387.346c-.105.14-.181.298-.225.467l.968.25a.33.33 0 01.056-.116l-.799-.601zm-.224.462l-1.554 5.779.965.26 1.555-5.779-.966-.26zm-.86 5.456c-3.84-1.79-7.451-4.178-10.612-7.338l-.707.707c3.253 3.253 6.964 5.705 10.896 7.537l.423-.906zm-10.612-7.338c-3.155-3.154-5.549-6.78-7.338-10.612l-.906.423c1.832 3.924 4.289 7.649 7.537 10.896l.707-.707zm-7.661-9.917l5.779-1.555-.26-.966-5.779 1.555.26.965zm5.788-1.558a1.33 1.33 0 00.787-.623l-.87-.492a.33.33 0 01-.195.155l.278.96zm.787-.623a1.33 1.33 0 00.127-.997l-.966.258a.329.329 0 01-.032.247l.871.492zm.127-.996l-3.602-13.527-.966.257 3.602 13.527.966-.257zm-3.602-13.527a1.33 1.33 0 00-.29-.54l-.748.664a.328.328 0 01.072.134l.966-.259zm-.287-.536a1.328 1.328 0 00-.45-.336l-.416.909c.043.02.08.048.111.083l.755-.656zM20 15.55a1.328 1.328 0 00-.547-.121l-.005 1a.33.33 0 01.136.03l.417-.91zm-.55-.121H8.215v1H19.45v-1zM8.215 18.088h10.589v-1H8.213v1zm10.106-.37l3.265 12.102.966-.26-3.265-12.102-.966.26zm3.617 11.49l-6.012 1.632.262.965 6.012-1.633-.262-.965zm-6.01 1.63a1.33 1.33 0 00-.507.263l.638.77a.329.329 0 01.126-.066l-.257-.966zm-.507.263a1.329 1.329 0 00-.351.45l.902.43a.33.33 0 01.087-.11l-.638-.77zm-.351.45a1.33 1.33 0 00-.13.556l1 .013a.33.33 0 01.033-.138l-.903-.43zm-.13.556c-.002.193.038.384.116.56l.913-.409a.329.329 0 01-.029-.138l-1-.013zm.114.555A39.749 39.749 0 0023.4 44.917l.707-.707a38.747 38.747 0 01-8.136-11.948l-.917.4zM23.4 44.917a39.942 39.942 0 0012.281 8.371l.4-.916a38.941 38.941 0 01-11.974-8.162l-.707.707zm12.277 8.37c.176.078.366.118.559.115l-.012-1a.33.33 0 01-.139-.028l-.408.912zm.559.115a1.33 1.33 0 00.556-.13l-.43-.902a.328.328 0 01-.138.032l.012 1zm.556-.13a1.33 1.33 0 00.45-.35l-.769-.639a.33.33 0 01-.112.087l.431.903zm.45-.35a1.33 1.33 0 00.262-.508l-.966-.256a.33.33 0 01-.065.125l.77.639zm.262-.505l1.632-6.012-.965-.262-1.633 6.012.966.262zm1.02-5.66l12.101 3.265.26-.966-12.101-3.265-.26.966zm11.731 2.782v16.092h1V49.54h-1zm.509 15.592c-12.114-.212-24.15-4.914-33.395-14.157l-.707.707c9.437 9.434 21.723 14.234 34.085 14.45l.017-1zM17.368 50.974C8.122 41.73 3.422 29.69 3.21 17.578l-1 .018c.217 12.358 5.014 24.649 14.451 34.084l.707-.707zM2.71 18.087h5.753v-1H2.71v1zm5.753-2.658H1.83v1h6.634v-1zm-6.61 0a1.363 1.363 0 00-.125 0l.047 1h.03l.048-1zm34.569 4.978a1.337 1.337 0 00-.497.156l.48.877a.336.336 0 01.125-.039l-.108-.994zm-.497.156c-.154.085-.29.198-.399.335l.78.626a.334.334 0 01.1-.084l-.481-.877zm-.399.335c-.11.137-.191.293-.24.462l.96.28a.336.336 0 01.06-.116l-.78-.626zm-.24.462a1.334 1.334 0 00-.046.518l.994-.109a.335.335 0 01.012-.13l-.96-.28zm-.046.518c.02.174.072.343.157.497l.877-.481a.336.336 0 01-.04-.125l-.994.11zm.157.497c.084.153.198.289.334.399l.626-.78a.336.336 0 01-.084-.1l-.876.48zm.334.399c.137.11.294.191.462.24l.28-.96a.333.333 0 01-.116-.06l-.626.78zm.462.24c.168.049.344.065.519.046l-.11-.995a.334.334 0 01-.129-.011l-.28.96zm.47.048c5.764-.07 10.344 4.488 10.274 10.248l1 .013c.077-6.326-4.964-11.338-11.286-11.26l.012 1zM46.937 33.31c-.003.174.029.348.093.51l.93-.366a.328.328 0 01-.023-.127l-1-.017zm.093.51c.064.163.16.312.281.437l.719-.695a.33.33 0 01-.07-.108l-.93.367zm.281.437c.122.126.267.226.427.296l.398-.918a.33.33 0 01-.106-.073l-.719.695zm.427.296c.16.07.333.106.508.11l.015-1a.329.329 0 01-.125-.028l-.398.918zm.508.11c.175.002.348-.03.51-.094l-.368-.93a.328.328 0 01-.127.023l-.015 1zm.51-.094a1.34 1.34 0 00.437-.282l-.697-.718a.326.326 0 01-.108.07l.369.93zm.437-.282a1.34 1.34 0 00.294-.428l-.918-.396a.327.327 0 01-.073.106l.697.718zm.294-.428c.07-.16.106-.333.109-.508l-1-.014c0 .044-.01.087-.027.126l.918.396zm.109-.509A12.747 12.747 0 0036.65 20.405l.012 1a11.747 11.747 0 0111.933 11.932l1 .012zM36.712 20.408a1.326 1.326 0 00-.29 0l.109.994a.334.334 0 01.072 0l.109-.994zM8.22 15.43a1.216 1.216 0 00-.966.433 1.425 1.425 0 00-.324.886c-.006.306.081.639.3.904.231.277.576.44.99.435l-.014-1c-.126.002-.177-.04-.205-.074a.376.376 0 01-.071-.244.43.43 0 01.088-.263c.038-.045.09-.079.188-.077l.014-1zm.235 2.658c.414.006.759-.158.989-.435a1.37 1.37 0 00.3-.904 1.427 1.427 0 00-.323-.886 1.216 1.216 0 00-.966-.433l.014 1c.097-.002.15.032.188.077a.43.43 0 01.088.263.376.376 0 01-.07.244c-.029.034-.08.076-.206.074l-.014 1z" fill="#2EBBE1" mask="url(#a)"/></svg>