<svg width="39" height="36" fill="none" xmlns="http://www.w3.org/2000/svg"><path fill-rule="evenodd" clip-rule="evenodd" d="M19.716 6.669C8.432 6.669 1.701 15.592.95 16.63a2.375 2.375 0 000 2.77c.505.697 3.707 4.951 9.174 7.67l1.417-1.45c-5.336-2.463-8.46-6.627-8.928-7.297a.576.576 0 010-.616c.673-.923 6.81-9.115 17.104-9.115 2.748 0 5.2.583 7.33 1.457l1.487-1.457c-2.512-1.135-5.463-1.923-8.817-1.923zm18.768 9.961c-.394-.543-2.42-3.24-5.878-5.692l-1.139 1.567c3.155 2.248 5.002 4.72 5.354 5.202.158.192.119.423 0 .654l-.04.038c-1.584 2.116-7.483 9.04-17.065 9.04-1.317 0-1.982.234-3.16 0l-1.477 1.406c1.446.327 2.993.516 4.637.516 10.493 0 16.946-7.5 18.689-9.808l.079-.115c.594-.885.594-2 0-2.808z" fill="#fff"/><path fill-rule="evenodd" clip-rule="evenodd" d="M25.077 11.938a8.349 8.349 0 00-5.36-1.923c-4.554 0-8.236 3.577-8.236 8 0 1.99.745 3.809 1.98 5.207l1.703-1.046a5.963 5.963 0 01-1.704-4.16c0-3.347 2.812-6.078 6.256-6.078 1.482 0 2.846.505 3.92 1.347l1.44-1.347zM18.038 25.85l1.678-1.758c3.444 0 5.439-3.064 6.586-5.36l1.55-1.962c.066.405.1.821.1 1.245 0 4.423-3.683 8-8.236 8a8.527 8.527 0 01-1.678-.165z" fill="#fff"/><path d="M3.345 34.803c.918-.918 19.896-21.045 32.14-33.289" stroke="#fff" stroke-width="2.5"/></svg>