<svg width="10" height="14" viewBox="0 0 10 14" fill="none" xmlns="http://www.w3.org/2000/svg">
<path d="M1.76471 5.29412V2.96544C1.76471 1.32767 3.2128 0 5 0C6.7868 0 8.23529 1.32895 8.23529 2.96544V5.29412H8.89162C9.50376 5.29412 10 5.8218 10 6.46966V12.3539C10 13.0031 9.5041 13.5294 8.89162 13.5294H1.10838C0.49624 13.5294 0 13.0017 0 12.3539V6.46966C0 5.82043 0.495902 5.29412 1.10838 5.29412H1.76471ZM1.17647 6.47059V12.3529H8.82353V6.47059H1.17647ZM7.05882 5.29412V2.96544C7.05882 2.00215 6.15828 1.17647 5 1.17647C3.84094 1.17647 2.94118 2.00125 2.94118 2.96544V5.29412H7.05882ZM4.41177 8.69672C4.41177 8.3719 4.67286 8.10859 5 8.10859C5.32487 8.10859 5.58824 8.3696 5.58824 8.69672V10.4616C5.58824 10.7865 5.32714 11.0498 5 11.0498C4.67513 11.0498 4.41177 10.7888 4.41177 10.4616V8.69672Z" fill="#2EBBE1"/>
</svg>
