<svg width="35" height="35" viewBox="0 0 35 35" fill="none" xmlns="http://www.w3.org/2000/svg">
<path fill-rule="evenodd" clip-rule="evenodd" d="M8.30874 16.1875C7.58452 16.1875 7 16.7751 7 17.5C7 18.2234 7.58594 18.8125 8.30874 18.8125C20.5523 18.8125 15.4802 18.8125 27.1288 18.8125C27.853 18.8125 28.4375 18.2249 28.4375 17.5C28.4375 16.7766 27.8516 16.1875 27.1288 16.1875C15.8319 16.1875 20.1542 16.1875 8.30874 16.1875ZM17.5 35C27.165 35 35 27.165 35 17.5C35 7.83502 27.165 0 17.5 0C7.83502 0 0 7.83502 0 17.5C0 27.165 7.83502 35 17.5 35Z" fill="#004A87"/>
</svg>
