<svg width="17" height="17" fill="none" xmlns="http://www.w3.org/2000/svg"><circle cx="8.5" cy="8.5" r="8.5" fill="#E74386"/><path d="M7.22 6.71c0 .371-.259.631-.592.631A.602.602 0 016 6.711C6 5.224 7.22 4 8.698 4c1.515 0 2.735 1.225 2.735 2.71 0 1.3-.887 2.376-2.107 2.673v1.337a.65.65 0 01-.628.63.65.65 0 01-.628-.63V8.9c0-.37.259-.705.628-.705.813 0 1.479-.668 1.479-1.485 0-.817-.666-1.448-1.479-1.448-.813 0-1.478.631-1.478 1.448z" fill="#fff"/><path fill-rule="evenodd" clip-rule="evenodd" d="M8.717 11.99c.439 0 .799.369.799.82 0 .45-.36.778-.8.778-.439 0-.798-.328-.798-.778 0-.451.36-.82.799-.82z" fill="#fff"/></svg>