<svg width="59" height="61" fill="none" xmlns="http://www.w3.org/2000/svg"><mask id="a" maskUnits="userSpaceOnUse" x="0" y="0" width="59" height="61" fill="#000"><path fill="#fff" d="M0 0h59v61H0z"/><path fill-rule="evenodd" clip-rule="evenodd" d="M48.802 22.807H37.081a.986.986 0 01-.964-.822.973.973 0 01-.117-.446V10.225a1 1 0 012 0v9.654L56.587 1.293a.999.999 0 111.414 1.414l-18.099 18.1h8.9a1 1 0 110 2zM1.215 9.198a.83.83 0 01.537-.268.833.833 0 01.077 0h17.622a.83.83 0 01.622.285.83.83 0 01.18.337l3.603 13.526a.83.83 0 01-.57 1.01l-5.779 1.556c1.81 3.878 4.236 7.553 7.437 10.754 3.207 3.206 6.869 5.627 10.754 7.437l1.555-5.779a.826.826 0 01.688-.614.829.829 0 01.323.018l13.527 3.628a.83.83 0 01.622.803v17.621a.83.83 0 01-.83.83 50.52 50.52 0 01-35.76-14.849C5.953 35.627 1.008 22.694 1 9.76a.83.83 0 01.215-.56zm7.248 1.39H2.71c.215 12.235 4.963 24.4 14.305 33.739 9.341 9.339 21.502 14.09 33.74 14.304V42.54l-12.102-3.265-1.633 6.012a.829.829 0 01-1.14.544 39.442 39.442 0 01-12.128-8.266 39.248 39.248 0 01-8.24-12.102.83.83 0 01.544-1.14l6.012-1.633-3.265-12.1H8.463z"/></mask><path fill-rule="evenodd" clip-rule="evenodd" d="M48.802 22.807H37.081a.986.986 0 01-.964-.822.973.973 0 01-.117-.446V10.225a1 1 0 012 0v9.654L56.587 1.293a.999.999 0 111.414 1.414l-18.099 18.1h8.9a1 1 0 110 2zM1.215 9.198a.83.83 0 01.537-.268.833.833 0 01.077 0h17.622a.83.83 0 01.622.285.83.83 0 01.18.337l3.603 13.526a.83.83 0 01-.57 1.01l-5.779 1.556c1.81 3.878 4.236 7.553 7.437 10.754 3.207 3.206 6.869 5.627 10.754 7.437l1.555-5.779a.826.826 0 01.688-.614.829.829 0 01.323.018l13.527 3.628a.83.83 0 01.622.803v17.621a.83.83 0 01-.83.83 50.52 50.52 0 01-35.76-14.849C5.953 35.627 1.008 22.694 1 9.76a.83.83 0 01.215-.56zm7.248 1.39H2.71c.215 12.235 4.963 24.4 14.305 33.739 9.341 9.339 21.502 14.09 33.74 14.304V42.54l-12.102-3.265-1.633 6.012a.829.829 0 01-1.14.544 39.442 39.442 0 01-12.128-8.266 39.248 39.248 0 01-8.24-12.102.83.83 0 01.544-1.14l6.012-1.633-3.265-12.1H8.463z" fill="#2EBBE1"/><path d="M8.463 8.83h-.25v.2h.25v-.2zm28.618 13.976v-.2.2zm11.721.001v.2-.2zm-12.685-.822l.197-.037-.006-.028-.013-.026-.178.091zM38 19.88h-.2v.483l.341-.341L38 19.88zM56.587 1.293l.141.142-.141-.142zm1.414 1.414l.141.142-.141-.142zm-18.099 18.1l-.141-.142-.342.341h.483v-.2zm8.9 0v.2-.2zM1.752 8.93l-.01-.2h-.01l.02.2zm-.537.268l.148.135-.148-.135zm.614-.268l-.01.2h.01v-.2zm6.36 0v.2h.002l-.002-.2zm.025 0l-.003.2h.003v-.2zm.25 0v.2h.002l-.003-.2zm.024 0l-.002.2h.002v-.2zm10.963 0v-.2.2zm.341.075l-.083.182.083-.182zm.28.21l-.15.13.001.003.15-.133zm.182.337l.193-.052-.193.052zm3.602 13.526l-.193.052.193-.052zm-.079.622l.174.098-.174-.098zm-.491.389l.052.193.003-.001-.055-.192zm-5.779 1.555l-.052-.193-.23.061.1.216.182-.084zm7.437 10.754l-.141.141.141-.141zm10.754 7.437l-.084.181.216.1.062-.23-.194-.051zm1.555-5.779l.193.052v-.002l-.193-.05zm1.01-.596l.053-.193h-.002l-.05.193zm13.528 3.628l-.052.193h.002l.05-.193zm.622.803h-.2.2zm0 17.621h.2-.2zm-.83.83v.2-.2zm-35.76-14.849l-.142.142.142-.142zM1 9.76h.2v-.001H1zm7.214.83v-.201H8.21l.003.2zm.25 0l.002-.2h-.003v.2zm-.28 0l.004-.2h-.003v.2zm-5.474 0v-.2h-.203l.003.203.2-.004zm14.305 33.738l-.142.142.142-.142zm33.74 14.304l-.004.2.203.004v-.204h-.2zm0-16.092h.2v-.153l-.149-.04-.052.193zm-12.102-3.265l.052-.193-.193-.052-.052.192.193.053zm-1.633 6.012l-.193-.053v.002l.193.05zm-1.14.544l.081-.182-.001-.001-.08.183zm-12.128-8.266l.142-.142-.142.142zm-8.24-12.102l.183-.08v-.001l-.183.081zm.008-.696l.18.087-.18-.087zm.22-.28l.127.153-.128-.154zm.316-.164l.051.193h.001l-.052-.193zm6.012-1.633l.052.194.193-.053-.052-.193-.193.052zm-3.265-12.1l.193-.053-.04-.148h-.153v.2zm-10.31 0v-.201h-.004l.003.2zM37.08 23.005l11.721.001v-.4h-11.72v.4zm-1.16-.984c.103.55.567.984 1.16.984v-.4a.786.786 0 01-.767-.658l-.394.074zm-.121-.483c0 .204.06.383.139.537l.356-.182a.774.774 0 01-.095-.355h-.4zm0-11.314V21.54h.4V10.225h-.4zm1.2-1.2a1.2 1.2 0 00-1.2 1.2h.4a.8.8 0 01.8-.8v-.4zm1.2 1.2a1.2 1.2 0 00-1.2-1.2v.4a.8.8 0 01.8.8h.4zm0 9.654v-9.654h-.4v9.654h.4zM56.446 1.152L37.859 19.738l.282.283L56.728 1.435l-.282-.283zm1.696 0a1.199 1.199 0 00-1.696 0l.282.283a.799.799 0 011.132 0l.282-.283zm0 1.697c.47-.47.47-1.228 0-1.697l-.282.283a.799.799 0 010 1.13l.282.284zM40.043 20.948l18.1-18.1-.283-.282-18.1 18.099.283.283zm8.759-.34l-8.9-.002v.4l8.9.001v-.4zm1.2 1.2a1.2 1.2 0 00-1.2-1.2v.4a.8.8 0 01.8.8h.4zm-1.2 1.2a1.2 1.2 0 001.2-1.2h-.4a.8.8 0 01-.8.8v.4zM1.732 8.73a1.03 1.03 0 00-.665.333l.296.269a.63.63 0 01.407-.204l-.037-.399zm.107-.001a1.028 1.028 0 00-.097 0l.019.4a.29.29 0 01.059 0l.019-.4zm6.35 0h-6.36v.4h6.36v-.4zm.028 0h-.031l.005.4a.71.71 0 01.02 0l.006-.4zm.246 0h-.25v.4h.25v-.4zm.028 0h-.03l.005.4a.71.71 0 01.02 0l.005-.4zm10.96 0H8.488v.4h10.963v-.4zm.425.093a1.03 1.03 0 00-.425-.093l-.001.4c.09 0 .178.02.259.057l.167-.364zm.347.26a1.032 1.032 0 00-.347-.26l-.167.364a.629.629 0 01.213.159l.301-.263zm.224.417a1.03 1.03 0 00-.225-.418l-.299.266a.63.63 0 01.138.255l.386-.103zm3.602 13.527L20.447 9.5l-.386.103 3.602 13.527.386-.103zm-.098.771a1.03 1.03 0 00.098-.771l-.386.103a.63.63 0 01-.06.472l.348.196zm-.61.483a1.03 1.03 0 00.61-.483l-.348-.196a.629.629 0 01-.373.295l.111.384zm-5.782 1.556l5.779-1.555-.104-.386-5.779 1.555.104.386zm7.527 10.42c-3.183-3.183-5.596-6.838-7.398-10.698l-.362.17c1.819 3.896 4.257 7.59 7.477 10.81l.283-.283zm10.697 7.396c-3.867-1.801-7.509-4.209-10.697-7.397l-.283.283c3.225 3.225 6.907 5.658 10.811 7.477l.169-.363zm1.277-5.649l-1.555 5.779.387.104 1.554-5.779-.386-.104zm.174-.36c-.081.108-.14.231-.174.362l.387.1a.631.631 0 01.106-.221l-.32-.24zm.3-.268a1.03 1.03 0 00-.3.268l.32.24a.628.628 0 01.183-.163l-.204-.345zm.379-.132a1.03 1.03 0 00-.38.132l.204.345a.628.628 0 01.232-.081l-.056-.396zm.4.022a1.028 1.028 0 00-.4-.022l.056.396a.63.63 0 01.245.014l.1-.388zm13.53 3.629l-13.527-3.628-.104.386 13.527 3.628.104-.386zm.554.366a1.03 1.03 0 00-.556-.367l-.1.388a.63.63 0 01.34.224l.316-.245zm.216.63c0-.228-.076-.45-.216-.63l-.316.245a.63.63 0 01.132.385h.4zm0 17.621v-17.62h-.4v17.62h.4zm-.302.728a1.03 1.03 0 00.302-.728h-.4a.63.63 0 01-.184.445l.282.283zm-.727.301c.272 0 .534-.108.727-.301l-.282-.283a.63.63 0 01-.446.184v.4zM15.68 45.635A50.72 50.72 0 0051.583 60.54v-.4a50.32 50.32 0 01-35.619-14.79l-.283.284zM.8 9.759c.008 12.986 4.973 25.97 14.881 35.876l.283-.283C6.134 35.524 1.208 22.643 1.2 9.759H.8zm.267-.695A1.03 1.03 0 00.8 9.76l.4-.002a.63.63 0 01.163-.425l-.296-.269zm7.147 1.724h.25v-.4h-.25v.4zm-.032 0h.035l-.006-.4a.9.9 0 01-.023 0l-.006.4zm-5.472 0h5.475v-.4H2.71v.4zm14.446 33.398C7.853 34.885 3.124 22.77 2.91 10.585l-.4.007c.216 12.284 4.983 24.5 14.363 33.877l.283-.283zM50.758 58.43c-12.188-.213-24.299-4.945-33.602-14.245l-.283.282c9.38 9.378 21.59 14.148 33.878 14.363l.007-.4zm-.204-15.892V58.63h.4V42.54h-.4zM38.6 39.467l12.102 3.265.104-.386-12.101-3.265-.105.386zm-1.387 5.871l1.633-6.012-.386-.105-1.633 6.012.386.105zm-.202.392a1.03 1.03 0 00.202-.393l-.386-.103a.629.629 0 01-.124.24l.308.256zm-.35.272c.136-.064.255-.157.35-.272l-.308-.255a.628.628 0 01-.213.166l.172.36zm-.43.1c.15-.002.296-.036.43-.1l-.171-.361a.628.628 0 01-.264.061l.005.4zm-.433-.09c.136.062.284.092.433.09l-.005-.4a.628.628 0 01-.264-.054l-.164.365zm-12.187-8.307A39.642 39.642 0 0035.8 46.013l.16-.366a39.241 39.241 0 01-12.066-8.225l-.283.283zm-8.283-12.163a39.448 39.448 0 008.283 12.163l.283-.283a39.05 39.05 0 01-8.199-12.04l-.367.16zm-.088-.431a1.01 1.01 0 00.09.433l.364-.163a.63.63 0 01-.055-.265l-.4-.005zm.1-.43a1.028 1.028 0 00-.1.43l.4.005a.63.63 0 01.06-.264l-.36-.172zm.271-.35a1.03 1.03 0 00-.271.35l.36.171a.63.63 0 01.167-.213l-.256-.308zm.393-.202a1.029 1.029 0 00-.393.202l.256.308a.64.64 0 01.24-.124l-.102-.386zm6.011-1.633l-6.012 1.633.105.386 6.012-1.633-.105-.386zM18.61 10.64l3.265 12.102.386-.105-3.265-12.101-.386.104zm-10.118.148h10.31v-.4H8.493v.4zm-.032 0h.035l-.006-.4a.9.9 0 01-.023 0l-.006.4z" fill="#2EBBE1" mask="url(#a)"/></svg>