<svg width="35" height="35" viewBox="0 0 35 35" fill="none" xmlns="http://www.w3.org/2000/svg">
<path fill-rule="evenodd" clip-rule="evenodd" d="M16.1875 16.1875H8.30874C7.58452 16.1875 7 16.7751 7 17.5C7 18.2234 7.58594 18.8125 8.30874 18.8125H16.1875V27.1288C16.1875 27.853 16.7751 28.4375 17.5 28.4375C18.2234 28.4375 18.8125 27.8516 18.8125 27.1288V18.8125H27.1288C27.853 18.8125 28.4375 18.2249 28.4375 17.5C28.4375 16.7766 27.8516 16.1875 27.1288 16.1875H18.8125V8.30874C18.8125 7.58452 18.2249 7 17.5 7C16.7766 7 16.1875 7.58594 16.1875 8.30874V16.1875ZM17.5 35C27.165 35 35 27.165 35 17.5C35 7.83502 27.165 0 17.5 0C7.83502 0 0 7.83502 0 17.5C0 27.165 7.83502 35 17.5 35Z" fill="#2EBBE1"/>
</svg>
