<svg width="73" height="73" viewBox="0 0 73 73" fill="none" xmlns="http://www.w3.org/2000/svg">
<path d="M36.2876 1C55.7738 1 71.5752 16.8686 71.5752 36.4378C71.5752 56.0069 55.7738 71.8755 36.2876 71.8755C16.8014 71.8755 1 56.0069 1 36.4378C1 16.8686 16.8014 1 36.2876 1ZM36.2876 2.96352C17.8824 2.96352 2.9552 17.9542 2.9552 36.4378C2.9552 54.9213 17.8824 69.912 36.2876 69.912C54.6928 69.912 69.62 54.9213 69.62 36.4378C69.62 17.9542 54.6928 2.96352 36.2876 2.96352Z" fill="#2EBBE1" stroke="#2EBBE1" stroke-width="1.3"/>
<path d="M22.6765 43.3101C22.6765 55.0535 49.8989 55.0535 49.8989 43.3101H47.9437C47.9437 52.4198 24.6317 52.4198 24.6317 43.3101H22.6765Z" fill="#2EBBE1" stroke="#2EBBE1" stroke-width="1.3"/>
<path d="M43.0557 27.8567C43.0557 19.8328 55.1911 19.8328 55.1911 27.8567H53.2265C53.2265 22.4288 45.0203 22.4288 45.0203 27.8567H43.0557Z" fill="#2EBBE1" stroke="#2EBBE1" stroke-width="1.3"/>
<path d="M17.3843 27.8567C17.3843 19.8328 29.5197 19.8328 29.5197 27.8567H27.5551C27.5551 22.4288 19.3489 22.4288 19.3489 27.8567H17.3843Z" fill="#2EBBE1" stroke="#2EBBE1" stroke-width="1.3"/>
</svg>
